<?xml version="1.0" encoding="UTF-8" standalone="no"?>
<!-- Created with Inkscape (http://www.inkscape.org/) -->
<svg id="svg2" xmlns:rdf="http://www.w3.org/1999/02/22-rdf-syntax-ns#" xmlns="http://www.w3.org/2000/svg" height="282.09mm" width="282.22mm" version="1.1" xmlns:cc="http://creativecommons.org/ns#" xmlns:dc="http://purl.org/dc/elements/1.1/" viewBox="0 0 1000.0003 999.51397">
 <metadata id="metadata7">
  <rdf:RDF>
   <cc:Work rdf:about="">
    <dc:format>image/svg+xml</dc:format>
    <dc:type rdf:resource="http://purl.org/dc/dcmitype/StillImage"/>
    <dc:title/>
   </cc:Work>
  </rdf:RDF>
 </metadata>
 <g id="layer2" transform="translate(154.01 152.46)">
  <path id="path3529" opacity=".317" d="m834.73 345.33c11.99 317.01-334.43 571.5-633.3 466.77-306.1-82.1-447.87-487.98-259-742.66 169.15-268.22 598.69-283.41 786.38-27.832 68.23 85.492 106.19 194.35 105.92 303.72z" fill-rule="evenodd" fill-opacity=".17290" stroke="#2a2d3e" stroke-width="21.901"/>
 </g>
 <g id="layer3">
  <path id="path3529-8" d="m188.01 497.56c-7.67-202.89 214.04-365.76 405.32-298.74 195.9 52.55 286.63 312.31 165.76 475.31-108.26 171.66-383.17 181.38-503.29 17.81-43.66-54.71-67.96-124.38-67.79-194.38z" fill="none"/>
  <g id="text4202" stroke="#7c1f23" stroke-width="1px" fill="#7c1f23">
   <path id="path4472" d="m129.7 392.89q6.6412 0.9851 12.672 4.2552 5.9644 3.2603 9.6408 8.2174 4.9675 6.7776 6.8725 14.526 1.9148 7.6822 0.30909 18.507l-2.3544 15.872 32.21 4.7777-3.7828 25.502-98.888-14.668 6.2258-41.972q1.3988-9.4305 4.0147-15.626 2.5593-6.272 6.5523-10.77 4.8049-5.3959 11.378-7.611 6.5828-2.2815 15.15-1.0107zm-3.3131 26.454q-4.184-0.62061-7.5074 1.1941-3.3899 1.8049-5.0286 4.6161-2.185 3.7483-2.8793 7.5141-0.76073 3.7559-1.6966 10.065l-0.65016 4.3832 29.62 4.3935 1.0836-7.3053q0.96539-6.5084 0.78906-10.811-0.16649-4.3686-2.1337-7.5789-1.7607-2.7725-4.5252-4.2685-2.8211-1.5723-7.0714-2.2028z"/>
   <path id="path4474" d="m171.5 302.51q-3.281-1.8359-6.3787-1.7997-3.0976 0.0362-6.2811 2.5632-2.216 1.7605-4.0966 4.7088-1.9391 2.9156-4.2012 6.9583l-4.557 8.144 23.495 13.146 3.8685-6.9136q3.0161-5.3903 4.5214-9.318 1.5053-3.9276 1.0073-7.4375-0.50494-3.3599-2.0827-5.6275-1.6035-2.359-5.2947-4.4244zm80.161-1.2297-15.376 27.479-45.301 5.8876-5.8028 10.37 31.99 17.9-12.523 22.381-87.241-48.815 21.113-37.732q4.3275-7.7339 8.3208-12.808 3.9933-5.0743 9.6439-8.2981 5.6834-3.2824 11.977-3.5306 6.2678-0.33958 13.299 3.5945 9.6674 5.4094 13.236 13.33 3.6018 7.8624 2.9892 18.444l53.674-8.2032z"/>
   <path id="path4476" d="m302.09 191.7q15.618 18.093 14.464 37.715-1.1984 19.572-19.494 35.365-18.245 15.75-37.782 14.078-19.581-1.7227-35.199-19.815-15.75-18.245-14.508-37.766 1.1984-19.572 19.443-35.322 18.194-15.706 37.782-14.078 19.544 1.5772 35.294 19.822zm-9.3286 41.491q-0.13726-5.9127-2.8013-11.773-2.7079-5.911-8.1919-12.264-5.8788-6.8101-11.578-10.227-5.6994-3.4172-10.785-4.1713-5.2242-0.81185-9.8138 0.75538-4.5388 1.5234-8.198 4.6821-3.71 3.2026-5.8727 7.3757-2.1119 4.1292-2.224 9.5476-0.0843 5.0396 2.6328 11.475 2.724 6.3406 8.4273 12.947 5.835 6.7593 11.484 10.22 5.6556 3.3664 10.785 4.1713 5.1295 0.8049 9.763-0.71151t8.3943-4.7629 5.9375-7.609q2.1328-4.4132 2.0416-9.6562z"/>
   <path id="path4478" d="m433.32 182.85q-5.3165 4.8648-14.703 11.305-9.4107 6.3771-19.679 10.351-23.793 9.2069-42.247 1.5175-18.477-7.752-27.297-30.544-8.4074-21.727 0.0435-40.259 8.4266-18.595 32.721-27.995 9.2043-3.5616 18.186-5.0935 8.9577-1.5944 21.078-0.59719l8.4558 21.852-2.6924 1.0418q-2.262-0.63649-6.5639-1.7075-4.3261-1.1336-8.111-1.6128-4.407-0.5984-9.8482-0.14868-5.3786 0.42548-10.826 2.5334-6.3867 2.4713-10.857 6.3608-4.4701 3.8894-7.1005 9.3706-2.491 5.2833-2.5544 12.003-0.0251 6.6328 2.9066 14.209 5.9845 15.466 17.361 20.494 11.376 5.0285 27.406-1.174 1.3775-0.53303 2.9813-1.2256 1.6664-0.71679 2.9954-1.375l-7.0748-18.283-18.596 7.196-6.8083-17.595 43.016-16.645 17.808 46.022z"/>
   <path id="path4480" d="m514.33 114.06q-0.0299-3.7596-1.5955-6.4328-1.5655-2.6732-5.3375-4.1874-2.6269-1.0533-6.1196-1.2269-3.4932-0.24075-8.1257-0.20386l-9.332 0.0743 0.21438 26.922 7.9221-0.0631q6.1766-0.0492 10.334-0.68656 4.1576-0.63737 6.9603-2.8082 2.6689-2.1026 3.8576-4.5963 1.2553-2.5614 1.2216-6.791zm40.767 69.032-31.487 0.25073-27.549-36.44-11.883 0.0946 0.2919 36.657-25.646 0.20422-0.79605-99.966 43.236-0.34429q8.862-0.07057 15.248 0.88569t11.985 4.2687q5.6662 3.3119 8.9987 8.6566 3.3991 5.2771 3.4632 13.333 0.0882 11.078-5.0257 18.101-5.0468 7.0228-14.543 11.731l33.708 42.567z"/>
   <path id="path4482" d="m653.8 219.27-25.165-8.7838 0.1308-21.359-34.99-12.213-13.189 16.801-24.531-8.5626 67.808-82.216 28.018 9.7795 1.9186 106.55zm-24.889-49.505 0.21498-37.898-23.415 29.8 23.2 8.0979z"/>
   <path id="path4484" d="m746.04 295.94-19.125-17.088 44.6-49.915-42.761 20.045-13.267-11.854 15.125-44.738-44.6 49.915-18.123-16.194 66.609-74.547 22.329 19.951-16.644 52.384 50.138-22.457 22.329 19.951-66.609 74.547z"/>
   <path id="path4486" d="m801.26 401.2-11.962-23.819 14.956-15.249-16.633-33.118-21.163 2.89-11.661-23.219 105.91-11.868 13.318 26.519-72.763 77.865zm16.57-52.874 26.524-27.07-37.553 5.111 11.028 21.959z"/>
   <path id="path4488" d="m881 461.7q3.7205-0.54222 6.1552-2.4576 2.4348-1.9154 3.4206-5.8585 0.68537-2.746 0.3812-6.2297-0.23774-3.4934-0.90583-8.0776l-1.3459-9.2347-26.641 3.8827 1.1425 7.8395q0.89079 6.1122 2.089 10.144 1.1982 4.0319 3.7309 6.5124 2.4468 2.3573 5.0793 3.1949 2.7086 0.89437 6.8941 0.28437zm-62.829 49.798-4.5411-31.159 32.343-32.26-1.7138-11.759-36.274 5.2866-3.6987-25.379 98.924-14.417 6.2355 42.785q1.2781 8.7697 1.2014 15.226-0.0767 6.4567-2.5949 12.455-2.5085 6.0648-7.349 10.095-4.7644 4.0868-12.737 5.2486-10.962 1.5976-18.617-2.5111-7.6453-4.0422-13.604-12.808l-37.575 39.196z"/>
  </g>
 </g>
 <g id="layer4">
  <path id="path4218" d="m188.96 497.27c-7.67-202.89 214.03-365.76 405.31-298.73 195.9 52.54 286.64 312.3 165.76 475.3-108.25 171.66-383.16 181.38-503.28 17.81-43.67-54.71-67.96-124.38-67.79-194.38z" fill="none"/>
  <g id="text4202-6" transform="translate(1.5999 -3.8862)" stroke="#7c1f23" stroke-width="1px" fill="#7c1f23">
   <path id="path4491" d="m763.92 674.85 33.11-64.283 88.874 45.775-33.11 64.283-17.19-8.8538 21.366-41.482-15.339-7.9008-19.829 38.498-17.19-8.8538 19.829-38.498-21.965-11.313-21.366 41.482-17.19-8.8538z"/>
   <path id="path4493" d="m687.51 757.88 17.631-17.499 78.452 18.809-48.336-48.7 16.773-16.648 70.424 70.954-21.872 21.709-66.218-14.965 40.343 40.647-16.773 16.648-70.424-70.954z"/>
   <path id="path4495" d="m577.75 801.42q10.762-2.897 20.758-2.181 9.9314 0.73346 18.172 5.2594 8.2407 4.526 14.402 12.949 6.0962 8.4406 9.412 20.758 3.089 11.475 2.166 21.736-0.92299 10.261-5.6734 18.701-4.5609 8.1111-12.889 14.108-8.3932 6.0139-19.414 8.9807-6.0941 1.6405-11.148 2.2362-5.1017 0.67802-9.5475 0.69281-4.6752-0.0625-8.595-0.67607-3.9671-0.53126-6.9742-1.1124l-6.3001-23.404 2.8526-0.76788q2.2341 1.0673 5.5977 2.4563 3.2988 1.4064 7.3581 2.5386 4.1242 1.1147 8.6573 1.4241 4.5331 0.30937 9.2658-0.96461 5.2513-1.4136 9.5302-4.3732 4.2964-2.8947 7.2862-7.8018 2.8303-4.725 3.5886-11.465 0.69345-6.7224-1.6451-15.41-2.4432-9.0763-6.6121-14.49-4.2337-5.396-9.0659-7.8498-4.9145-2.5011-10.196-2.7482-5.2637-0.18223-9.9964 1.0918-4.5382 1.2216-8.5802 3.7698-4.1068 2.5656-7.2388 5.9117-2.6706 2.7352-4.8176 5.6076t-3.4786 4.8995l-2.5932 0.69807-6.2128-23.08q3.1942-2.5981 6.1167-4.9144 2.9224-2.3163 6.2737-4.3309 4.3662-2.6354 8.3234-4.4655 3.9572-1.83 11.218-3.7846z"/>
   <path id="path4497" d="m452.42 811.8 72.096 1.2407-1.7201 99.955-25.777-0.44361 1.3874-80.622-46.319-0.7971 0.3327-19.333z"/>
   <path id="path4499" d="m328.22 825.7q7.7659-22.605 25.3-31.489 17.512-8.8205 40.371-0.96738 22.795 7.8313 31.189 25.552 8.3722 17.784 0.60627 40.389-7.8313 22.795-25.322 31.552-17.512 8.8205-40.307 0.9892-22.732-7.8095-31.189-25.552-8.4793-17.679-0.64796-40.474zm40.543-12.834q-5.0391 3.0961-8.7604 8.3488-3.7431 5.3161-6.4699 13.253-2.9231 8.5085-3.0053 15.153-0.0822 6.6449 1.8274 11.418 1.9294 4.9223 5.5947 8.0982 3.6018 3.1541 8.1735 4.7248 4.6352 1.5924 9.3296 1.3595 4.6309-0.25478 9.3686-2.8866 4.3964-2.4651 8.5879-8.0531 4.1062-5.5464 6.942-13.801 2.9013-8.445 3.047-15.068 0.0604-6.5814-1.8274-11.418-1.8878-4.837-5.5312-8.0764t-8.3421-4.8537-9.5637-1.2979q-4.8868 0.37982-9.3705 3.0989z"/>
   <path id="path4501" d="m237.45 736.49q12.253-13.901 27.241-13.846 14.987 0.0549 31.457 14.572 16.469 14.518 18.404 29.38 1.8847 14.818-10.324 28.668l-42.221 47.897-19.441-17.137 41.244-46.789q6.8814-7.8065 6.9818-14.52 0.1004-6.7134-7.2528-13.195-7.2525-6.393-13.817-5.6465-6.6153 0.70209-13.763 8.8108l-41.244 46.789-19.441-17.137 42.176-47.846z"/>
   <path id="path4503" d="m157.51 630.03q12.279-6.652 25.057-6.3209 12.72 0.36318 22.552 6.1085 7.3821 4.3238 13.074 11.166 5.6924 6.8427 11.385 17.35l16.79 30.992-87.899 47.62-17.27-31.877q-5.8206-10.744-8.212-19.528-2.4505-8.7517-2.023-15.856 0.62395-12.097 7.2548-22.409 6.5398-10.339 19.291-17.247zm12.519 23.532q-8.6778 4.7012-13.09 11.215-4.5034 6.4867-4.2765 15.221 0.17495 4.4104 1.5674 8.3902 1.3015 3.9528 5.2671 11.273l3.1022 5.7261 55.018-29.806-3.1022-5.7261q-4.3814-8.0874-7.1366-11.482-2.8142-3.3623-6.7131-5.9079-6.9-4.2795-14.37-3.974-7.5293 0.3375-16.266 5.0707z"/>
  </g>
 </g>
 <g id="layer5">
  <g id="Icon_9_" fill="#2a2d3d" transform="matrix(1.1473 0 0 1.1145 214.21 184.03)">
   <g id="g4455" fill="#2a2d3d">
    <g id="g4457" fill="#2a2d3d">
     <path id="path4459" fill="#2a2d3d" d="m403 217c-14-69-74-121-147-121-58 0-108 33-133 81-59.998 6-107 57-107 119 0 65.996 54.004 120 120 120h260c55 0 100-45 100-100 0-53-41-96-93-99zm-7 159h-260c-44.004 0-80-35.996-80-80 0-44 35.996-80 80-80h14.004c12.998-46 55-80 106-80 60.996 0 110 49 110 110v10h30c32.998 0 60 27.003 60 60 0 32.998-27.002 60-60 60z"/>
    </g>
   </g>
  </g>
 </g>
</svg>
