<svg xmlns="http://www.w3.org/2000/svg" width="196" height="196" viewBox="0 0 692.9 692.9"><style>.a{fill:#fff;}.b{fill:#2a2d3e;}.c{fill:#cbc8c5;}.d{fill:#96252a;}.e{fill:#e1e1e4;}.f{fill:#e2e2e5;}</style><g transform="translate(8.2297496e-7 -0.21948271)matrix(0.69285714 0 0 0.74142857 22.142857 137.3622)"><path d="m-32-185 462.8 0c-0.6 0.3-1.7 1-2.2 1.4-71.3 5.2-141.3 24.9-203.7 57.5C157.6-91.1 99.1-41.3 55.6 18.1 13.6 75.1-14.3 140.8-25.9 209.1c-2.9 7.9-2.5 16.4-3.9 24.5-0.8 5.2-1.2 10.4-2.1 15.6l0-434.2z" class="a"/><path d="m430.8-185 33.5 0c-11.9 0.1-23.8 0.9-35.7 1.4 0.6-0.4 1.7-1.1 2.2-1.4z" fill="#e3e4e6"/><path d="m464.3-185 7.4 0c15.6 0.2 31.2 1.2 46.8 2.3 87.4 8.2 172.3 38.3 243.2 86.8 58.8 39.8 108.1 91.8 143.4 151.1 33.6 56.3 54.5 119.3 60.8 183.6 1 12.8 1.9 25.5 2.2 38.4l0 10.5c-0.3 16.1-1.6 32.2-3.3 48.2-9.7 79.6-41.8 156.7-92.5 221.3-44.8 57.5-103.8 105.3-171.1 138.5-56.7 28-119.3 45.6-183.1 51.5-3.8 0.2-7.6 0.5-11.4 1.2-0.1-0.1-0.3-0.4-0.4-0.6-10.8 1.4-21.7 1.4-32.6 1.8l-11.4 0c-13.7-0.2-27.3-1.1-40.9-2.1C359.2 742.1 298.2 725.7 242.5 699.3 175.5 667.7 116.2 621.6 70.7 565.8 22.2 506.8-10.7 436.8-24.4 363.5c-4.8-25.4-7.3-51.2-7.6-76.9l0-9.7c0.4-22.7 2.6-45.4 6-67.9C-14.3 140.8 13.6 75.1 55.6 18.1 99.1-41.3 157.6-91.1 224.9-126.1c62.4-32.6 132.4-52.3 203.7-57.5 11.9-0.5 23.8-1.3 35.7-1.4z" class="b"/><path d="m471.7-185 31.7 0c5 0.9 10.1 0.9 15.1 2.3-15.6-1.1-31.1-2.1-46.8-2.3z" fill="#dfe0e2"/><path d="m503.4-185 464.6 0 0 434.2c-0.4-3.6-1.3-7.1-2.2-10.6-6.3-64.2-27.1-127.2-60.8-183.6C869.8-4.1 820.5-56.1 761.7-95.9 690.8-144.4 605.9-174.5 518.5-182.7c-4.9-1.3-10-1.4-15-2.3z" class="a"/><path d="m432.8-169.9c63.9-4.4 128.7 3.1 189.5 22.1 71.8 22.4 137.7 60.9 190.9 111.3 50.3 47.5 89.2 105.4 112.8 168.5 38.7 102.3 36.1 217.6-7.2 318.3-29.7 69.7-78.4 132.2-140.1 180.1-65.9 51.5-146.7 86.3-231.6 99.1-57.6 8.9-116.8 7.9-174-2.7C304.5 714.3 239 687.4 182.6 648.9 119.5 606 67.7 548.7 33.1 483.4-2.1 417.3-19.3 342.9-16.9 269.2-15.3 215.3-3.4 161.6 18.4 111.6 45.5 49.1 87.9-7.5 141.3-52.9c59.3-50.7 132.4-87.3 210.5-105.1 26.6-6.1 53.7-10.1 81-11.9z" class="c"/><path d="m427.4-156.5c9.7-2.1 19.8-2.2 29.7-1.9 1.7 0.2 3.8-0.1 5 1.2 0.9 2.6 0.5 5.4 0.5 8.1-11.2 2.2-22.8 2-34.2 1.9-2-2.6-0.9-6.3-1-9.3z" class="b"/><path d="m468.1-157.3c11.4-1.5 23.2-1.1 34.5 0.7 0.9 3 2.4 8.9-2.5 9.2-10.7 0.9-21.5 0-32.1-1.7-0.6-2.7-0.6-5.6 0-8.3z" class="b"/><path d="m386.3-151.5c10-2.8 20.4-3.5 30.6-4.8 1.3 0 2.9-0.5 4 0.2 1.5 2.7 1.3 5.9 1.5 8.9-10.8 3.9-22.7 3-34 4.8-1.3-2.9-2-6-2.2-9.1z" class="b"/><path d="m508.4-155.5c11.9-1.2 23.6 1.6 35.2 3.6 0 3.2 0 6.4-1.1 9.5-11.5-0.2-22.9-2.1-34.2-3.9-0.8-3-0.8-6.2 0.1-9.2z" class="b"/><path d="m348.1-144.5c10.7-3 21.8-5.1 32.9-6.3 0.9 2.7 1.8 5.4 1.8 8.2-10.6 4.9-22.4 5.9-33.8 7.8-0.8-2-1.6-4.1-2-6.2-0.1-1.2-0.8-3.2 1.1-3.5z" class="b"/><path d="m548.5-141c-1.2-3.1-1.2-8.1 2.3-9.7 11 1.9 22.2 3.4 32.8 6.8 0.4 3.5-0.6 6.8-2.4 9.8-11-1.7-21.8-4.7-32.7-6.9z" class="b"/><path d="m308.2-132.7c10.7-4.1 21.6-8.7 33.4-9.1 0.7 2.7 2.6 5.4 1.7 8.2-10.1 5.1-21.4 7.8-32.6 9.9-1.6-2.8-2.8-5.8-2.5-9z" class="b"/><path d="m587.5-133c-1-3.5-0.2-7.4 3.2-9.6 10.9 2.8 21.5 6.1 32.1 9.8 0.2 3.3 0 7-2.9 9.3-4.1 0-7.9-1.6-11.8-2.6-6.9-2.1-14.1-3.7-20.5-6.9z" class="b"/><path d="m430.8-134c10.8-0.5 21.6-1.5 32.4-1 0.8 3 1.2 6.1 0.2 9.2-10.3 1.5-20.7 1.2-31.1 2.1-2.4-3-2-6.8-1.5-10.2z" class="b"/><path d="m469.7-135.1c10.9 0 22-0.2 32.8 2-0.3 3.1 0.4 6.7-2.1 9.2-10.3 0.5-20.7 0.1-30.9-1.8-1.3-3.1-1-6.3 0.1-9.4z" class="b"/><path d="m391.6-128.2c10.1-5 21.9-4 32.9-5.1 0.9 2.6 2.4 5.3 1.7 8.1-0.7 1-2 1.2-3.1 1.6-9.7 2.5-19.9 3.3-30 2.7-0.5-2.4-1-4.9-1.4-7.3z" class="b"/><path d="m507.8-124.1c-2.5-2.6-0.5-6.5 1-9.2 10.7 1.6 21.9 0.8 32 4.9 0.1 3.2-0.4 6.4-2 9.3-10.3-1.7-21.2-1-30.9-5z" class="b"/><path d="m270.5-119c10.8-3.5 20.6-9.4 31.9-11.4 1.8 2.8 2.8 5.9 3.1 9.2-4.9 3-10.7 3.8-16 6-4.4 1.7-8.5 4.1-13.2 5.1-1.7 0.5-3.7-0.4-4.7-1.7-1.2-2.2-1-4.7-1.2-7.1z" class="b"/><path d="m625.8-122.3c0.1-2.7 0.6-6 3.3-7.6 2.8 0.5 5.4 1.7 8.1 2.5 7 2.3 14.5 3.9 20.7 7.8 1.8 1 2.8 2.9 3.8 4.6-1 1.8-1.8 4-3.6 5.3-1.4 0.6-3-0.2-4.4-0.4-8.4-2.6-16.6-5.9-24.5-9.7-1.2-0.7-2.8-1.2-3.3-2.5z" class="b"/><path d="m354.4-121.7c10.3-3.6 21.1-5.9 32.1-6.7 1 3 1.5 6.1 1.4 9.2-10.2 2.9-20.7 5.1-31.3 6.1-1.3-2.7-2.4-5.6-2.2-8.6z" class="b"/><path d="m545.4-118.1c-1.4-3.5-0.2-7.1 1.5-10.3 10.8 2.1 21.8 3.7 32 7.7-0.1 2.9-0.8 5.7-1.9 8.4-10.8-0.3-21-3.8-31.5-5.8z" class="b"/><path d="m323.8-113c7.3-2.4 14.1-7.1 22.1-6.9 4.6 0.6 5 5.5 4.8 9-9.9 2.9-19.8 6-29.9 8.5-2.1-2.1-4-4.8-3.1-7.8 1.5-1.7 4.1-1.9 6.1-2.8z" class="b"/><path d="m582.1-110.1c-0.1-3.1 0.5-6.2 1.7-9.1 11.2 0.7 21.2 5.7 31.8 8.7 0 3.1-0.8 6.1-2.4 8.7-10.8-1.3-20.8-5.3-31.1-8.3z" class="b"/><path d="m234.2-100.6c8.6-4.6 16.5-10.6 25.9-13.8 4.9-2 9.6 4.1 7.3 8.2-3.2 3.3-8 4.4-12.1 6.2-5.9 2.3-10.7 6.6-17.1 7.8-2.1-2.4-4-5.1-3.9-8.3z" class="b"/><path d="m662.5-106.5c0.2-3.1 1.4-6.7 4.5-8.1 11 3 20.9 8.7 30.5 14.4-0.4 3.3-1.8 6.3-4.3 8.6-10.8-4-20.9-9.3-30.8-14.9z" class="b"/><path d="m288.9-101.7c7.3-3 15.2-4.5 22.6-7.2 1.8 2.5 3.1 5.3 3.5 8.3-10.3 3.7-19.9 10.9-31.5 10.6-1.3-1.7-2.5-4-1.6-6.1 1.3-2.8 4.3-4.3 7.1-5.6z" class="b"/><path d="m618.4-99.5c0.2-3.1 1-6.1 3.4-8.3 10.3 3.6 21.2 6.2 30.1 12.4-0.6 2.8-1.9 5.4-4.4 7.1-10.2-2.5-19.7-6.9-29.1-11.3z" class="b"/><path d="m199.5-80.4c9.5-5.8 18.3-12.8 29-16.5 2.6 2 4.1 4.8 4.5 7.9-9.1 6-18.6 11.3-28 16.9-3.1-1.9-5.2-4.7-5.5-8.3z" class="b"/><path d="m698.3-88.7c0-3.3 2.1-6 4.4-8.2 10.6 4 19.4 10.9 28.9 16.7-0.6 2.4-0.9 5.3-3.3 6.8-2.6 0.8-5.4 0.3-7.8-0.8-8.1-3.8-14.4-10.3-22.3-14.4z" class="b"/><path d="m273.6-93.6c2.5-1.4 4.1 1.5 5.3 3.2 1.2 1.7 0.2 3.8-1.4 4.9-4.3 2.8-9.4 4.1-13.8 6.8-3.1 1.8-5.9 4.3-9.6 5.2-5 1-9.5-6.5-4.6-9.3 7.1-5.2 15.8-7.9 24.1-10.8z" class="b"/><path d="m653.5-84.7c0.4-3.4 1.5-8.9 6.5-8.3 9.9 1.9 16.7 9.7 25.6 13.7 0.7 3.4-2.4 8.9-6.7 6.7-8.7-3.6-16.9-8.1-25.4-12.1z" class="b"/><path d="m417.3-86.4c13.6-0.4 27.2-0.9 40.8-1 5.6 0 11.5-0.4 16.8 1.5 7.7 2.3 14.6 8.2 16.2 15.8 1 5.9 0.3 12.4-3.7 17.2-2.4 3-6 4.9-9.4 6.6 5 1.6 10.2 4.6 11 10 1.1 7.8 0.6 15.8 1 23.7 3.1 0 6.2 0 9.4 0 0 3.8 0 7.7 0.1 11.5-8.6 0.6-17.3 0.6-25.9 0.8 0.1-9.2-1-18.4-0.8-27.7 0-3.3-0.1-7.5-3.7-9.1-7.3-3.4-15.7-1.5-23.5-1.9 0.1 9.1 0.6 18.3 0.8 27.4 3.5 0 6.9-0.1 10.4-0.2 0.1 4 0.3 8 0.2 12-12.3 0.2-24.7 0.1-37.1 0.9-0.1-4-0.2-8-0.3-12 3.3-0.1 6.6-0.2 10-0.3-0.6-21.4-1.3-42.7-1.9-64.1-3.3 0.1-6.7 0.1-10 0.2-0.1-3.9-0.2-7.7-0.2-11.6z" class="d"/><path d="m547.1-80.8c15.7 3.6 31.2 7.8 46.8 11.5-0.9 3.7-2 7.4-2.8 11.1-3.3-0.4-6.6-1.3-9.8-2.2 0.3 14.6 1.9 29.1 2.5 43.7 0.9 7.9 0.8 15.8 1.6 23.7 2.2 0.5 4.4 1.1 6.6 1.6-0.7 3.9-1.9 7.7-3 11.6-11-2.6-22-5.5-33-8.1 0.5-4 1.8-7.8 2.9-11.6 3.3 0.8 6.6 1.6 9.9 2.4-0.2-6.1-1-12.1-1.3-18.1-9.1-2.4-18.3-4.6-27.5-6.9-3.6 5-7.2 10.1-10.9 15.1 3.2 0.9 6.4 1.7 9.7 2.4-0.9 3.8-2 7.5-3.1 11.2-11-2-21.6-5.3-32.5-7.7 1-3.9 2.1-7.7 3.4-11.5 2.4 0.5 4.9 1.8 7.3 1.5 8.6-11.4 16.6-23.2 25-34.8 5-7.1 10.3-14 15-21.3-3.3-0.7-6.5-1.5-9.7-2.4 1-3.7 2.1-7.4 3-11.2z" class="d"/><path d="m361.1-75.3c4.2-1.3 8.4-2.7 12.7-4 3.5 9.6 7.5 19.1 10.6 28.9-4 1.4-8 2.8-12.1 3.7-2.5-3.7-6-6.8-10.5-8.3-9.8-3.5-21.3-1.2-29.6 4.6-8.4 6-12.8 16.2-11.8 26 1.1 12.5 9.8 25 22.9 28.9 9.7 2.8 20.3 0.3 28.7-4.6 7.4-4.2 11.8-12.1 11.9-20.1-6.7 2.4-13.6 4.4-20.3 6.8-1.4-4.1-4-8-4-12.4 14.1-4.4 28.1-9.5 42.3-13.5 1.4 4 3.1 7.9 4.2 12-3.1 1-6.1 1.9-9.2 2.9 3.1 9.1 7.1 18 9.8 27.1-4.2 1.2-8.4 2.7-12.7 3.8-1-2.7-2-5.3-3-8-2.6 3-4.5 6.6-7.5 9.3-8.3 8.1-20.6 12.1-32.4 12.3-15.4 0.7-30.5-7.5-38.7-19.6-6.7-9.8-10.5-21.8-8.2-33.4 2.2-11.4 8.3-22.6 18.4-29.6 11.3-7.9 26.6-11.6 40.3-7.3-0.5-1.9-1.2-3.8-1.7-5.8z" class="d"/><path d="m444.4-75.4c8.3-0.4 16.9-1.5 24.8 1.5 3 1 4.9 3.8 5.3 6.7 0.3 3.6 0.4 7.6-1.8 10.7-1.7 2.7-5.1 3.7-8.2 4.5-6.4 1.5-13.1 1.1-19.7 1.1-0.1-8.2-0.2-16.3-0.4-24.5z" class="c"/><path d="m235.3-75.3c3.1-1.3 7.1-1.6 9.7 0.6 1.3 1.8 1.1 4.5-0.9 5.7-6.5 5.3-13.7 9.9-21.4 13.7-5.1 3.6-11-5.4-5.9-8.4 5.8-4.3 12-8.3 18.5-11.7z" class="b"/><path d="m687.3-67.9c0-3.3 1.4-6.4 4.4-8.3 10 4 18.7 10 27.1 16.4-0.7 2.5-1.5 7.6-5.6 6.4-9.8-2.7-17.2-9.6-25.9-14.4z" class="b"/><path d="m732.8-69c-0.8-3.6 3.5-5.2 6.2-6.6 8.6 6.5 17.7 12.4 25.8 19.4-1 2.8-2.8 7.1-6.9 6.1-5.5-1.6-9.5-5.6-14.1-8.6-4-3.1-9-5.7-11.1-10.4z" class="b"/><path d="m190.3-74.6c4.4-2.9 10.4 2.6 8.1 6.9-2.4 3.1-6.3 4.7-9.6 6.8-5.2 3.2-9.2 7.9-14.7 10.9-2.6 0.2-5.2-1.9-6.3-4.1-1.3-2.2 1.2-3.8 2.6-5.2 6.2-5.6 12.6-11 19.9-15.2z" class="b"/><path d="m546.9-32.7c5.9-8.9 12.3-17.5 18.6-26.2 0.9 10.4 1.4 20.8 2.1 31.3-6.9-1.7-13.7-3.5-20.6-5.1z" class="c"/><path d="m205.4-56.4c3.7-1.5 8.9 1.1 8.1 5.2-1 2.4-3.3 4-5.3 5.8-5.7 4.6-11.3 9.4-18.2 12.3-4.1 0.4-7.6-4.6-5.1-7.9 3.2-3.7 7.9-5.7 11.6-8.8 3-2.2 5.5-5 8.8-6.6z" class="b"/><path d="m723.2-55.8c4.2 0.4 7.5 3.2 10.9 5.3 4.5 3.3 9.2 6.4 13.2 10.2 3.7 3 0.2 10.3-4.8 9.1-4.4-1.4-7.3-5-10.8-7.6-3.7-3.1-8.5-5.2-11.3-9.1-2.2-2.7-0.1-6.6 2.8-7.9z" class="b"/><path d="m642.6-53.3c1.9 0.8 3.7 1.8 5.4 2.9 8.1 5.2 16.5 10.2 24.5 15.5-3.7 12.5-7.3 25.1-10.9 37.6-1.3 4.5-2.8 8.9-3.6 13.5 15.4-10.5 30.7-21 46-31.5 9.4 5.8 18.7 11.7 28.1 17.5-2.1 3.4-4.5 6.6-6.9 9.8-2.5-1.6-5-3.1-7.5-4.7-12.3 16.6-24 33.6-36.2 50.3-0.4 0.9-1.7 1.8-1.2 2.8 2.1 1.7 4.5 3 6.8 4.4-2 3.5-4.5 6.7-6.7 10.1-4.9-2.3-9.1-5.5-13.7-8.2-5.1-3.3-10.5-6.3-15.5-9.8 1.8-3.6 4.4-6.8 7-9.9 3.1 1.4 5.8 3.5 8.8 5.2 11.3-16.1 23-32 34.3-48.2C682.8 16 664.8 28.8 646.3 40.9c-2.7-1.8-5.5-3.5-8.2-5.2 2.7-13.2 6.6-26.2 9.7-39.3 1.7-7.3 4.1-14.4 5.2-21.8-11.5 15.8-22.9 31.6-34 47.6 2.8 1.8 5.6 3.5 8.4 5.2-2.1 3.5-4.3 7-7.2 10-9.8-5.8-19.4-11.8-28.9-18.1 1.8-3.6 4.3-6.8 6.9-9.9 2.8 1.3 5.2 3 7.8 4.5 12.5-17.8 25.3-35.3 37.7-53.1-2.6-1.5-5.1-3.1-7.7-4.7 2.2-3.2 4.4-6.3 6.6-9.5z" class="d"/><path d="m156.7-49.8c2-1.9 4.8-2.1 7.5-2 1.8 1.9 3.6 4.3 2.4 7-2.1 4-6.3 6.3-9.6 9.4-3.7 3.1-6.5 7.1-10.4 9.9-4 3.2-12.1-2.7-8.2-6.8 5.5-6.3 11.7-12.1 18.3-17.5z" class="b"/><path d="m768.5-50.8c2.6-1.6 4.5 1 6.4 2.4 6.4 5.6 13.5 10.5 18.8 17 2.5 2.3-0.7 5.5-2.8 6.9-2.6 2-5.3-0.7-7.3-2.2-4.3-4-8.8-8-13.5-11.6-2.3-2.2-5.5-4.2-5.8-7.5-0.4-2.5 2.2-4.1 4.3-5z" class="b"/><path d="m157.3-18.4c6.8-5.3 13.4-10.8 19.8-16.6 2.3 1.1 5.2 1.8 6.4 4.2 0.5 1.9-0.7 3.7-2 5.1-3.5 3.9-8.2 6.6-11.6 10.6-2.2 2.3-4.2 5-7.2 6.3-5.5 1.6-10.2-6.4-5.3-9.6z" class="b"/><path d="m751.1-30.8c1.7-2.3 5.3-1.9 7.5-0.4 7.7 4.7 12.1 12.7 19.4 17.8 0.3 3.5-2.7 5.6-5.8 6.9-7.7-5.5-14.7-11.8-21.7-18.1-2.4-1.6-0.6-4.4 0.6-6.2z" class="b"/><path d="m130.7-24.6c2.7-1.5 5.1 0.9 7.2 2.2 0 6.4-5.8 10.5-10 14.8-3.9 3.6-6.8 8-11.3 11.1-3.3 0.3-6.7-2.3-7.1-5.3 1.1-3.4 3.9-6 6.1-8.8 4.6-5 8.9-10.5 15-14z" class="b"/><path d="m799.3-24.9c1.6-0.5 2.8 0.7 3.8 1.6 3.6 3.5 6.2 7.8 10.1 11.1 2.9 2.6 6.4 4.7 8.5 7.9 2.8 3.9-2 9.6-6.7 8.5-4.9-2.6-7.7-7.4-11.4-11.1-3.5-3.6-7.8-6.9-9.4-11.7-1.3-3.1 2.3-5.8 5.2-6.2z" class="b"/><path d="m245.6-18.8c13.7-1.2 28 2.9 38.1 11.7 8.5 7.3 14.8 17.3 16.2 28.1 1.9 14.6-3.8 30.1-15.6 39.9-9.3 7.8-21.3 14.1-34.2 13.5-14.2-0.8-28.2-6.9-37.2-17.3-8.3-9-12.7-21-11.6-32.8 0.7-22 21.4-40.7 44.3-43.1z" class="d"/><path d="m128.4 12.3c5-9.1 14.5-14.9 21.5-22.4 2.9 1.1 5.9 3.2 6 6.4-2 4.9-6.9 7.9-10.3 11.8-3.2 3.2-5.5 7.4-9.7 9.5-3.7 0.8-6.2-2.6-7.5-5.3z" class="b"/><path d="m780.4-7c4.7-1.3 8.1 2.9 11.1 5.7 3.7 4.3 8.4 7.9 11.6 12.7 2 2.8 0.5 6.7-3 7.6-2.4 1.1-4.2-1-5.8-2.2-5.8-4.9-11.3-10.2-15.8-16.1-2-2.4-1.4-6.7 2-7.6z" class="b"/><path d="m246.1-3.8c9-0.8 18.4 1.8 25.1 7.4 6 4.9 10.4 11.6 11.9 18.9 1.4 7.6 0.2 15.7-4.4 22.2-3.7 5.1-8.8 9.4-14.8 12-11.7 5-26.7 2.3-35.4-6.6-9.2-9.1-14.1-23.1-8.7-35.1 4.6-9.8 14.8-17.5 26.3-18.7z" class="c"/><path d="m85.2 26.4c5.8-8.1 12.1-16 19-23.3 3.3-0.2 5.4 2.4 7.6 4.2-4.7 9.8-13.3 17.3-19.6 26.2-3.4-0.3-9.5-3.2-7-7.1z" class="b"/><path d="m820.3 8.2c1.9-2 4.4-4.3 7.5-3.1 3.7 2 5.9 5.7 8.5 8.7 3.5 4.4 8.5 7.8 11.2 12.8 1.9 3.9-2.9 8.4-7 7.7-3.5-1.6-5.4-5.1-7.5-8-4-6.2-10-11.1-12.6-18.1z" class="b"/><path d="m123.3 17.9c0.7-1.7 2.8 0.3 3.9 0.6 1.7 1.3 3.7 3.3 3.3 5.5-3.1 4.7-7.6 8.5-10.7 13.3-2.3 3.1-4 7-7.8 8.9-4.2 0.2-8.2-4.1-6.3-8 3.9-8.1 13.2-12.5 17.5-20.3z" class="b"/><path d="m802.4 26.4c0.7-2.8 1.6-5.8 4.5-7.5 5.7 2.7 8.8 8 12.7 12.4 3.4 4 7.6 7.7 9.3 12.7-2.3 2.5-6.1 5.1-9.6 2.7-7.1-5.6-9.4-15-16.9-20.3z" class="b"/><path d="m80 33.1c2.3 0.9 5.4 1.4 6.5 3.7 1.2 3.7-1.4 7.1-3.4 10.1-3.5 4.9-6.6 10-9.9 15-1.2 1.6-2.5 4.2-5.2 3.4-3.1-0.3-7.1-3.5-5.1-6.5 4.2-9.4 11.3-17.1 17.1-25.7z" class="b"/><path d="m848.4 35.1c2-0.6 4.6-0.7 6 1.1 4 4.4 5.7 10.1 9.4 14.6 2.5 3.6 6.4 7.2 6 11.8-1.3 2.4-4.5 4.2-7.4 3.5-3.8-2.9-5.6-7.3-8.2-11.1-2.7-4.5-7-8.1-9.2-12.9-1.4-2.7 0.9-5.7 3.4-7z" class="b"/><path d="m758.3 46.7c3.3-2.4 6.6-4.7 9.9-7.1 9.1 11 18 22.1 27.2 33.1 0.7 0.9 1.5 1.9 1.6 3.1-2.8 2.6-6.2 4.7-9.5 6.7-2-2.3-3.4-5.3-6.2-6.8-11.1 14.8-21.7 29.8-32.6 44.6-2.4 3.6-5.4 6.8-7.4 10.6 1.1 1.8 2.7 3.4 3.7 5.3-3 2.5-6.2 5-9.7 6.8-7.3-8.2-13.9-16.9-20.9-25.3 3.4-2.4 6.7-4.7 10-7.2 2.2 2.2 3.7 5.6 6.6 7.1 3.4-4.4 6.5-8.9 9.6-13.4 1.4-1.9-1.2-3.6-2.2-5.2-4.8-5.7-9.4-11.4-14.1-17.1-6 2.1-12.4 3.3-18.2 6 1.6 2.6 3.8 4.9 5.7 7.4-3.4 2.4-6.7 5-10.3 7-6.6-8.3-13.4-16.5-20.2-24.8 3.3-2.4 6.7-4.8 10-7.2 2.1 1.8 3.4 6.5 6.9 4.9 22.1-7 44.2-13.9 66.3-20.9-2-2.6-4-5.1-6.2-7.6z" class="d"/><path d="m99 47.5c3.5-1.6 10 1.4 8.3 5.8-3.1 8.9-11.4 15-15.8 23.2-3-0.1-7.4-1.2-7.7-4.4 3.6-8.9 10.4-16.3 15.3-24.6z" class="b"/><path d="m827.5 50.2c1.8-1 4.4-1.6 6.1-0.1 3.6 2.7 5.2 6.9 7.7 10.5 2.3 3.7 5.7 6.8 7.6 10.8 2.3 3.7-3.5 8-7.1 6.6-6-5.8-10.8-12.7-15-19.7-1.5-2.4-2.3-6.3 0.7-8z" class="b"/><path d="m143.3 71.3c4.5-6.2 11.6-11.1 19.7-11.9 12.6-1.9 26.1 8.9 24.7 21 0 1.5-0.2 3-0.3 4.5 3.9-3.4 9.7-5.4 14.9-3 7.6 3.7 14.1 9 21.6 12.8 1.6-2.3 3.2-4.6 4.8-6.8 3.5 2.1 7.2 4 10.4 6.6-4.3 6.9-9.5 13.3-14 20-9.3-5.4-18.1-11.4-27.3-16.9-2.3-1.5-5.5-2.3-8-0.6-6.8 3.8-10.7 10.7-14.6 16.8 8.2 4.9 16.2 10.1 24.3 15.1 2-2.7 3.9-5.3 5.8-8 3.3 2.2 7 4 10.1 6.5-0.4 1.1-0.9 2.1-1.6 3-6.2 8.6-12.4 17.2-18.5 25.9-3.6-2.1-7.1-4.3-10.7-6.6 1.9-2.6 3.7-5.1 5.5-7.7-16.3-10.2-32.6-20.4-48.9-30.6-2.7-1.7-5.4-3.4-8.2-4.8-1.8 2.4-3.1 5.3-5.6 7.3-3.5-1.8-6.7-4.2-10.1-6.2 8.7-12.1 17.2-24.4 26.2-36.3z" class="d"/><path d="m53.4 73.3c1.4-2.5 3.2-4.7 5.4-6.6 3.2-0.1 7.9 1.6 7.8 5.1-3.9 9.4-10.2 17.8-14.1 27.2-3.3 0.2-6.3-0.9-9-2.5 1.8-8.2 5.7-15.9 10-23.2z" class="b"/><path d="m736.8 77.1c10.5-3.1 20.8-6.7 31.4-9.6-6 8.6-12.4 17-18.5 25.6-4.7-5-9.2-10.2-12.9-15.9z" class="c"/><path d="m865.8 71.6c1.6-2.7 5.7-5 8.8-2.7 4.8 3.6 6.8 9.4 9.3 14.4 1.6 4.2 4.1 8 6 12.1-1.2 2.3-3.6 3.8-5.7 5.3-5.7-2.3-7-8.5-9.8-13.1-2.5-5.5-7.5-10-8.5-16z" class="b"/><path d="m157.7 75.5c3.3-2.3 7.9-1.5 11 0.6 3.6 2.3 7.6 5.6 7.1 10-0.8 8-7 14.1-11.3 20.7-7.8-4-15-9-22.3-13.7 4.8-6.1 8.5-13.3 15.4-17.6z" class="c"/><path d="m80.1 77.8c3.1-0.4 5.7 1.2 7.6 3.2-2.6 10.1-8.9 18.9-14.7 27.7-2.9-0.5-5.5-1.7-7.8-3.5 3.2-9.8 8.8-18.8 14.8-27.3z" class="b"/><path d="m849.2 79.6c1.3-0.8 3.4-1 4.5 0.3 3.3 3.2 4.9 7.5 7.1 11.3 2.6 5 6 9.7 7 15.3-1.3 2.8-6.3 4.9-8.8 2-3.6-3.8-5-8.9-7.9-13.2-2-3.3-5-6.3-5.7-10.2-0.6-2.5 1.8-4.3 3.8-5.5z" class="b"/><path d="m33.9 112c1.8-4.3 3.6-9 8-11.7 2.1 1 4.2 2.2 6.2 3.4-1.8 10.7-7.9 20.3-11.8 30.4-2.6-0.3-5.4-0.4-7.7-1.8-0.8-0.9-0.2-2.2-0.2-3.2 1.3-5.8 3.4-11.5 5.6-17.1z" class="b"/><path d="m884 104.8c2.6-2.1 5.8-3.3 9.3-3.5 3.5 9.8 9.7 18.7 12.2 28.8 1.2 4.4-5.3 4.9-8.5 5.1-4.8-9.9-9.7-19.9-12.9-30.4z" class="b"/><path d="m61.8 109.9c3.3 0.2 6.8 1 9 3.5-0.1 2-0.9 3.8-1.6 5.7-3 7.6-6.7 15-10 22.5-3.3 0-6.7-0.6-9-3 2.5-10 7.9-19.1 11.6-28.7z" class="b"/><path d="m863.4 115.1c1-2.4 3.9-3.7 6.6-3.8 6.1 8.8 10.7 18.7 12.3 29.1-1.1 2.5-5.1 2.5-7.6 3.3-2.9-7.1-7.6-13.4-10.5-20.5-0.8-2.6-2.2-5.5-0.7-8.1z" class="b"/><path d="m812.3 119.4c3.9-1.5 7.8-2.9 11.8-4.2 4.4 11.2 9.2 22.4 13.6 33.6 2.2 6 5.2 12 4.9 18.5-0.2 7.9-4.6 16.3-12.7 19.4-4.7 1.9-10.2 3.2-15.3 1.8-4.4-1.1-8-3.8-11.2-6.7 0.7 5.4-1.6 11.3-7.1 13.7-7.4 3.1-15.1 5.5-22.7 8.3 1 2.6 2.1 5.3 3.2 7.9-3.9 1.6-7.9 3-11.9 4.2-2.8-7.6-6.7-14.9-8.8-22.7 9.9-3.4 19.8-7 29.6-10.5 3.2-1 6-3.6 5.8-6.9 0.2-7-3.6-13.2-5.9-19.7-9.4 2.7-18.3 6.5-27.6 9.5 1.1 3.1 2.3 6.2 3.5 9.2-4 1-7.8 3.5-12 3.6-4.5-10.6-8.6-21.3-13.1-31.8 3.9-1.5 7.9-2.9 11.9-4.3 1.2 2.8 2.3 5.6 3.4 8.4 4.2-0.9 8.1-2.5 12.1-3.9 17.4-6.1 34.7-12.4 52-18.6-1.1-2.9-2.3-5.8-3.5-8.7z" class="d"/><path d="m25.3 136.5c3 0.4 5.8 1.4 8.5 2.8-3 10.4-6.2 20.7-10.4 30.7-3.2-0.1-6.1-1.1-8.9-2.4 3.3-10.4 5.5-21.3 10.8-31z" class="b"/><path d="m899.8 140.1c0.7-3.8 6.7-4.4 8.8-1.4 2.6 2.9 3.7 6.7 4.9 10.2 2 6.7 3.6 13.5 4.6 20.4-2.9 1.2-5.9 1.9-9 2-1.8-3.7-2.9-7.6-3.7-11.6-1.3-6.7-6-12.7-5.6-19.7z" class="b"/><path d="m107.9 143.8c5.7-4.2 13.4-4.9 20.2-3.2 6.8 1.6 13.7 4.3 18.3 9.5 4.6 5.3 5.7 12.5 5.3 19.1 0 7.3-3.7 13.9-5.7 20.8 6.9 2 13.6 4.4 20.6 6.3 1.2-3.4 2.4-6.8 3.5-10.2 4.2 0.8 8.2 2.2 12.2 3.6-4 11.5-8.3 23-12.2 34.5-4-1.2-8-2.4-12-3.6 0.9-3.1 2-6.2 3-9.3-21.7-6.6-43.2-13.7-65-20.1-1 3-2 6-3.2 8.9-3.9-1.1-7.8-2.4-11.7-3.6 3.3-9.9 7-19.7 10.5-29.6 3-8.8 8.3-17.2 16.2-23z" class="d"/><path d="m797.1 151.6c8.3-2.9 16.4-6.2 24.9-8.7 2.7 7.4 7 14.6 6.5 22.6-0.1 3.9-3.9 6.5-7.5 7.6-4.1 1.5-9.5 2.2-12.9-1.1-5.9-5.5-7.9-13.3-10.9-20.4z" class="c"/><path d="m48.9 143.2c3 0.3 6.4 1.1 8 3.7-2.1 9.8-5.8 19.3-9.4 28.7-3.2 0-6.4-0.2-9.1-2 2.2-10.4 4.3-21.2 10.4-30.3z" class="b"/><path d="m876.3 147.6c2.5-1.9 5.6-3 8.8-3.2 3.9 10 8.5 20 9.7 30.7-2.6 1.8-5.8 2.5-9 2.5-4.3-9.7-7.5-19.7-9.6-30z" class="b"/><path d="m108.5 161.2c3.1-3.4 7.6-6.3 12.7-5.7 6.2 0.6 13.2 3.2 15.5 9.1 2.8 7.1 0.4 14.7-2.9 21.2-10.9-2.7-21.5-6.6-32.3-9.8 2-5 3.1-10.6 6.9-14.8z" class="c"/><path d="m14.3 173.1c2.4 0.3 4.8 0.7 7.2 1.4-0.1 10.8-4.4 21.1-5.8 31.8-3.4 0.2-7 0.3-10.2-1.3 2.3-10.7 2.5-22.3 8.8-31.9z" class="b"/><path d="m910.5 176.4c2.8-2.7 6.9-3.6 10.6-2.1 2.3 10.5 5.7 20.8 6.7 31.5-2.9 1.1-6.4 3.2-9.4 1.3-4.5-9.7-4.8-20.6-7.9-30.7z" class="b"/><path d="m36.6 178.9c3.1-1.4 6.2-0.1 8.9 1.4-0.4 10.6-3.7 20.8-7 30.8-2.8-0.1-5.5-0.6-8.1-1.7-0.3-10.5 3.8-20.4 6.2-30.5z" class="b"/><path d="m889.9 181.2c1.8-1.6 4.5-1.3 6.7-1.2 3.6 9.5 6.2 19.4 6.6 29.5 0.4 1.7-1.9 2.1-3.1 2.1-2.1 0.2-4.2 0.1-6.3 0-0.7-8-4.5-15.5-5.9-23.4-0.5-2.5-0.2-5.4 2-7.1z" class="b"/><path d="m-29.8 233.6c1.4-8.2 1-16.6 3.9-24.5-3.4 22.5-5.6 45.1-6 67.9l0-27.8c1-5.2 1.4-10.4 2.2-15.6z" fill="#e0e1e3"/><path d="m4.9 210c2.9 0.2 5.8 0.6 8.6 1.1 0.6 11.2-1.9 22.3-4.2 33.3-3.1 0-6.2-0.3-9-1.6-0.3-4.3 0.5-8.5 0.9-12.8 0.6-6.7 1.7-13.5 3.6-20z" class="b"/><path d="m920.3 211.8c2.5-0.1 5-0.5 7.5-0.3 4.5 10.3 4.5 21.7 5.7 32.6-3.2 0.8-6.5 1.5-9.7 0.4-1.8-10.8-5.5-21.7-3.4-32.7z" class="b"/><path d="m28.6 214.5c2.8-0.5 6.7-1.1 8.7 1.1 0.9 9.9-0.8 19.8-3.3 29.4-2 2.7-6.5 1.2-9.3 0.4 0.2-10.4 2-20.6 3.9-30.8z" class="b"/><path d="m896.5 215.5c2.6-0.4 5.3-0.7 8-0.8 2.4 10.5 4.3 21.1 4.3 31.9-2.9 0.6-6 0.6-9 0.6-2.6-10.3-5.2-21.1-3.3-31.6z" class="b"/><path d="m965.9 238.7c0.9 3.5 1.8 7 2.2 10.6l0 27.8c-0.2-12.8-1.1-25.6-2.2-38.4z" class="e"/><path d="m-2.3 280.9c0.3-10.8-0.7-21.8 2.3-32.4 2.8-0.6 5.7-0.2 8.5-0.3 2.2 10.8 0 21.8-0.1 32.7-3.4 1.2-7.3 1.6-10.7-0.1z" class="b"/><path d="m923.6 250.9c2.7-1.6 5.9-2.6 9.1-1.9 1.8 4.4 2.2 9.1 2.7 13.8 0.3 6.7 0.5 13.5-0.8 20.2-2.9 0.1-5.9 0-8.8-0.3-2.7-10.4-0.2-21.2-2.2-31.7z" class="b"/><path d="m24 253.4c1.3-3.8 5.8-4 9.3-3.3 1 8.5 0.2 17 0.4 25.6-0.1 1.6 0.2 3.3-0.4 4.8-2.9 1.7-6.4 1.3-9.7 1.1 0.3-9.4-3-19.1 0.4-28.2z" class="b"/><path d="m901.6 250.9c2.7 0 5.4 0 8.1 0.1 1 4.8 0.8 9.7 1.3 14.5 0.5 5.7 0.5 11.5-0.5 17.1-2.9 0.4-5.8 0.4-8.7 0.1-2.1-10.4-4.1-21.6-0.2-31.8z" class="b"/><path d="m-1.6 294.4c0.1-2.9-0.7-6.3 1.6-8.5 2.7-1.3 5.6 0.2 8.3 0.9 0.1 11.1 2.8 22.4 0 33.4-2.8 0.1-5.6 0-8.4-0.2C-1.9 311.5-1 302.9-1.6 294.4Z" class="b"/><path d="m23.5 286.4c2.9-1.2 6-1 8.9 0 1.5 9.1 1.4 18.4 2.4 27.6 0.9 3.5-4 4.4-6.7 4.4-2.2 0.6-2.7-1.6-3.3-3-3.1-9.4-1.8-19.4-1.2-29z" class="b"/><path d="m903.9 286.8c2.1-0.7 4.4-0.2 6.6-0.2 2.9 10.5-0.2 21.2-0.3 31.8-3.5 1.1-7.7 1.6-10.9-0.6 0.6-6.8 0.3-13.7 0.2-20.5 0.2-3.7 0.4-8.5 4.3-10.5z" class="b"/><path d="m925.8 286.6c2.9-0.2 5.9-0.2 8.8 0 2.4 11.2 1 22.8-0.4 34.1-1.4 0.4-2.8 0.8-4.2 1.2-1.9-0.6-3.7-1.2-5.5-1.8-0.9-11.2 0.7-22.3 1.4-33.5z" class="b"/><path d="m-32 286.6c0.3 25.8 2.8 51.5 7.6 76.9 13.7 73.3 46.6 143.3 95 202.3 45.6 55.8 104.8 101.9 171.9 133.5 55.7 26.4 116.7 42.8 178.9 48.1 3.7 0.9 7.4 1.7 11.3 2.1l-464.6 0 0-462.9z" class="a"/><path d="m964.8 335.8c1.6-16 3-32.1 3.3-48.2l0 27.7c-1.4 6.8-1.4 13.8-3.3 20.5z" class="e"/><path d="m964.8 335.8c1.9-6.7 1.9-13.7 3.3-20.5l0 434.2-464.6 0c1.1-0.4 2.2-0.8 3.3-1.2 3.8-0.6 7.6-1 11.4-1.2 63.8-5.9 126.4-23.5 183.1-51.5 67.3-33.2 126.3-81 171.1-138.5 50.6-64.7 82.8-141.7 92.5-221.3z" class="a"/><path d="m896.7 328.7c0.7-3.1 2.2-6.1 4.2-8.7 3.7-0.3 6.8 1.6 9.8 3.4-0.2 10.6-2 21-4.1 31.4-2.7 1.2-5.6 1.8-8.6 2-2-1.7-4.9-3.3-4.5-6.2 0.1-7.4 1.5-14.7 3.3-21.8z" class="b"/><path d="m25.6 322.1c3.2-0.4 6.4-0.6 9.6 0 1.4 9.2 2.6 18.5 4.5 27.6 1.1 3.1-3 4.7-5.6 4.9-1.8 0-4.7 0.6-5.2-1.7-1.8-10.2-4.2-20.4-3.3-30.8z" class="b"/><path d="m924.5 324.7c2.6-0.7 5.3-0.8 7.9 0 2.4 11.6 0.4 23.7-4 34.7-3 0.2-6 0-8.8-1.3-0.3-11.3 1.4-22.6 4.9-33.4z" class="b"/><path d="m1.5 324c2.9-0.2 5.8-0.3 8.7-0.2 1.8 11.1 5.2 22.1 4.3 33.5-2.8 0.6-5.7 1.5-8.7 1-1.4-0.8-1.2-2.6-1.6-3.9-1.6-10-4.6-20.2-2.7-30.3z" class="b"/><path d="m31.4 358.2c2.5-1.5 5.9-0.8 8.7-0.9 3.4 10 6.8 20.2 7.2 30.8-2 1.7-4.7 2.8-7.4 2.2-4.2-2.1-5.3-6.9-6.3-10.9-1.4-7-2.5-14.1-2.2-21.1z" class="b"/><path d="m887.7 389.1c-0.6-11.2 3.1-22.1 6.9-32.6 2.9 0.4 5.8 0.9 8.7 1.3 1.6 11.5-2.1 23-6.9 33.5-3-0.1-5.9-0.9-8.7-2.1z" class="b"/><path d="m6.2 362.1c3.2-1.2 6.7-1.2 10.2-0.8 2.1 11 7.2 21.4 7.3 32.7-3 1.7-6.5 2.1-9.9 1.2C10 384.4 6.8 373.4 6.2 362.1Z" class="b"/><path d="m917.6 362.1c3.5-1.7 7.7-0.8 10.5 1.6 0.7 1.5 0 3.1-0.1 4.7-1.3 9.6-2.9 19.3-7.1 28.3-2.8-0.2-6.1 0.1-8.4-1.8-2.2-2.1-2.2-5.2-1.8-7.9 1.3-8.5 5.8-16.3 6.8-24.9z" class="b"/><path d="m39.5 394.4c1.6-3.2 6.3-3.5 9.7-2.9 0.6 1 1 2.2 1.3 3.3 2.9 9.3 8.4 18.1 8.2 28.1-2.8 1.4-5.8 2.1-9 2.1-5.9-9.3-8.7-20-10.3-30.6z" class="b"/><path d="m884.6 394c2-3.3 6.6-3.5 9.8-1.6 0.4 4.4 0.7 8.9-0.5 13.2-1.8 6.2-4.7 12.1-7.4 18-0.5 1.8-2.7 1.6-4.2 2.1 3 11.8-5.8 22.1-10.1 32.6-1.6 0.1-3.2 0.2-4.8 0.3 3.2 12.2-7.5 21.5-12.3 31.8-3.3-0.1-7.7-0.1-9.4-3.3-1.2-4.3 0.9-8.6 3.1-12.3 3.3-5.8 7.9-10.9 10.4-17.1 1.7 0 3.4-0.1 5.1-0.1-0.9-1.7-2.9-3.2-2-5.2 2.4-9.7 6.7-18.8 11.9-27.5 1.7-0.1 3.4-0.1 5.1-0.1-1.2-1.3-2.5-2.5-3.7-3.8 4.1-8.6 3.6-18.7 9.1-26.8z" class="b"/><path d="m15.6 398.9c2.9-1.1 6.6-3.3 9.2-0.7 3.5 4.2 3.7 9.9 5.5 14.8 1.5 5.4 5.2 10.4 4.9 16.1-0.7 3.8-6.1 4-9.1 2.6-3.3-2.6-4.5-6.7-5.8-10.4-2.1-7.4-6-14.6-4.8-22.4z" class="b"/><path d="m911.3 398.1c2.7-1.2 5.3 0.8 7.6 1.8-1.7 8.3-2.7 16.7-5.7 24.7-1.4 3.1-2.8 6.8-6.3 8.3-2.8 1.1-5.4-0.8-7.7-2 1.7-7.6 3-15.2 5.3-22.7 1.4-3.8 2.9-8.1 6.9-10.2z" class="b"/><path d="m178.9 417.9c3.2-2.4 6.8-4.2 10.1-6.3 13.3 18.9 26.3 37.9 39.6 56.8-6.8 4.3-13.7 8.4-20.6 12.6-2.6-3.9-5.7-7.5-7.9-11.6 3-2.4 6.5-4.1 9.8-6.2-5.6-8-10.8-16.2-16.8-23.8-6.9 3.5-13.2 8.1-20 11.8 4.2 7.1 9.5 13.6 14 20.6-4.1 2.6-8.2 5.1-12.3 7.6-4.8-6.7-9.4-13.7-14.3-20.4-8 5.1-16.4 9.7-24.3 15 5.1 8.3 10.9 16.1 16.6 24.1 4.3-2.6 8.3-5.5 13-7.5 2.4 3.9 5.5 7.3 7.5 11.4-6.3 4.6-13.4 8.2-19.9 12.4-1.1 0.6-3 2.2-4 0.7-12.9-18.5-25.7-37.1-38.7-55.5 3.5-2.3 7-4.4 10.7-6.4 1.8 2.6 3.7 5.1 5.6 7.7 19-11.8 38.3-23.1 57.3-35-1.8-2.5-3.8-4.9-5-7.7z" class="d"/><path d="m52.8 427c2.1-3 6.3-2.1 9.4-1.3 1.7 4.7 3.4 9.3 5.7 13.8 2.2 5 5.1 10.1 4.8 15.6 0 2.3-2.6 3.2-4.3 4.3-1.8-0.7-4-0.8-5.2-2.4-3.5-4.1-4.7-9.5-7-14.2-2.2-4.9-5.1-10.4-3.3-15.8z" class="b"/><path d="m28.3 435.4c2.9-1.7 6.2-2.9 9.8-2.4 3.9 9.8 9.9 18.9 12.5 29.1 1.2 3.1-3 4.7-5.4 5.6-4.1 0-6.5-3.6-8.2-6.6-4.2-8.1-6-17.1-8.6-25.7z" class="b"/><path d="m890 448.5c2.4-5.2 3.2-11.3 7.6-15.4 3.3 0.1 6.5 1.2 9.1 3.1-1.4 11.4-7.6 21.4-12.5 31.7-2 0-3.9 0-5.9 0-0.6 0.4-1.2 0.8-1.8 1.3 1.5 0.8 2.9 1.8 4.3 2.7-3.6 10.6-8 21.4-16.3 29.6-1.2 1.9-3.3 0.5-4.8-0.2-2.9-1.4-3.9-4.9-2.9-7.8 2.7-9.2 10.7-16.1 14.2-25 1.9 0 3.8 0.1 5.8 0.2-0.8-1.1-1.5-2.3-2.3-3.4-0.6-6.1 3.4-11.3 5.5-16.8z" class="b"/><path d="m731.3 446.1c21.2-9.1 49.3 0 59.5 19.8 6 9.7 6 21.6 3.2 32.2-3.1 11-11.5 19.6-18.5 28.5-4.1 5.1-8.3 10.2-12.4 15.3-3.3-2.3-6.7-4.7-10-7 1.8-2.7 3.8-5.2 5.8-7.7-18.3-12.7-36.3-25.8-54.7-38.5-1.9 2.5-3.9 4.9-5.9 7.4-3.3-2.4-6.7-4.7-10-7.1 6.1-7.5 12.1-14.9 18.1-22.4 6.6-8.4 14.5-16.4 24.9-20.5z" class="d"/><path d="m737 457.4c17.8-4.3 36.8 6.5 43.1 22.1 2.7 5.7 3.2 12.3 0.6 18.1-2.6 6.4-7.6 11.5-11.8 17-18.2-12.8-36.4-25.6-54.6-38.5 6.1-7.5 12.4-16.1 22.6-18.7z" class="c"/><path d="m66.7 464.5c-0.6-4.9 6.9-8.7 10.5-4.8 3.4 4 4.6 9.2 7.5 13.4 2.3 4.1 6 8 5.8 12.9-0.8 3.6-5.3 3.9-8.5 4.4-3.7-4.1-6.6-8.8-9.3-13.5-2.3-4-5.4-7.8-6-12.5z" class="b"/><path d="m45.7 470.5c1.8-2.7 5.6-2 8.5-2.1 3.1 9.7 12.4 16.8 14.2 26.9 0.6 4.5-4.8 5.7-8.5 6.2-4.3-5.8-6.8-12.5-10.6-18.6-2.1-3.8-5-8-3.6-12.4z" class="b"/><path d="m225.5 484c2.7-3 5.4-6 8.3-8.9 7.5 6.3 15.2 12.4 22.9 18.5-4.9 19.7-10.4 39.2-15.3 58.9 10.2-10.4 19.9-21.2 29.7-31.9-2.3-1.8-4.9-3.4-6.7-5.7 1.6-3.4 5.3-5.8 7.7-8.9 8.5 7.2 17.5 13.8 25.8 21.2-1.6 3.5-5.3 5.9-7.6 9-2.4-2-4.9-4-7.3-6-17.7 19.1-35.4 38.2-53.1 57.4-3.6-2.5-6.9-5.4-10.3-8.1 6-24.6 12.1-49.1 18.1-73.7-13 13.7-26 27.5-38.5 41.7 2.6 2 5.2 4.1 7.8 6.1-2.6 3.1-5.4 6-8 9-9.1-6.8-17.7-14.2-26.5-21.2 2.8-2.7 5.2-5.7 8.1-8.4 2.7 0.8 4.6 3.1 6.8 4.7 15.1-16 30-32.2 44.8-48.3-2.1-1.7-4.3-3.5-6.5-5.2z" class="d"/><path d="m842.3 489.1c3.6-1.6 8.9 1.5 8.5 5.4-0.2 4.5-3.4 8.3-5.8 12-3.1 4.1-5.4 8.7-8.8 12.6-3.3 4.1-11.4 0.8-11.1-4-0.2-5.5 5.2-8.9 8-13.1 3.2-4.1 4.1-10.1 9.2-12.8z" class="b"/><path d="m88.4 491c2.5-1.5 6.2-1.2 7.9 1.2 3.3 4.1 5.3 9.1 9 13 2.2 2.8 5.1 5.3 6.2 8.8 0.8 4.6-4.8 8.8-9.4 6.8-3.5-2.5-5.5-6.4-7.9-9.8-2.9-4.6-6.7-8.7-8.4-13.8-0.9-2.3 0-5.1 2.5-6.1z" class="b"/><path d="m652.9 513.5c9.8-6.5 19.6-13 29.3-19.6 2.5 3.1 4.9 6.3 7.4 9.4-2.5 1.7-5 3.4-7.6 5.1 9.3 12.4 18.9 24.7 28.3 37.1 4.7 6 8.8 13.1 8.3 20.8-0.7 7.8-4.5 15.4-10.8 20.6-9.8 8.2-24.5 12.6-37.1 7.7-5.3-2.1-9.6-6-12.9-10.4-10.1-13.1-20.1-26.3-30.2-39.4-2.4 1.4-4.5 3.1-7 4.4-1.2 0.3-1.8-1.1-2.4-1.7-1.7-2.4-3.9-4.5-5-7.2 9.4-6.9 19.4-13 29-19.7 2.5 3.1 5.3 6.2 7 9.8-2.6 1.6-5.2 3.3-7.7 5.1 7.7 10.9 16.2 21.3 24.2 32 4 5.4 8.2 11.1 14.7 14.1 5.2 2 10.6-1 14.8-3.7 3.9-2.7 8.5-6.6 7.2-11.6-1.8-7.6-7.5-13.6-12.1-19.8-7.4-9.6-14.6-19.3-22.1-28.7-2.7 1.8-5.5 3.6-8.2 5.4-2.4-3.2-4.9-6.3-7.1-9.6z" class="d"/><path d="m857.7 506.1c1.9-2.1 3.9-5.3 7.4-4.9 3.1 0 5 2.6 7.1 4.4-5.3 10.1-10.7 20.2-18.4 29-4-0.2-7.5-2.2-9.5-5.4 3.3-8.2 8-15.9 13.4-23.1z" class="b"/><path d="m67.4 502.5c2.3-0.7 5.3-0.9 7 0.9 3.1 3.3 4.6 7.5 7.2 11 2.7 3.9 6.6 7 8.8 11.3 1.9 4.4-4.1 9.5-8.6 7.2-3.7-2.6-5.6-6.7-8.1-10.2-3-4.8-7.3-9-9-14.3-0.8-2.3 0-5.2 2.7-5.9z" class="b"/><path d="m821.5 519.2c3-0.9 6.1 2 7.9 4.1 0.4 4.4-2.3 8.3-5.4 11.4-4.1 4.1-6.5 9.3-10.7 13.3-4.7 4.6-13.9-3.1-9.5-8 5-7.5 10.8-14.7 17.7-20.8z" class="b"/><path d="m111.1 520.5c2.7-1 5.7 0.4 7.5 2.3 3.2 3.4 5.2 7.5 8.4 10.9 2.5 3 5.9 5.6 7.4 9.3 0.3 3.4-3 6.3-6.3 7.1-2.3 0.5-3.8-1.7-5.4-2.9-5.6-5.7-11.1-11.7-15-18.5-2-3-0.1-7.2 3.5-8.1z" class="b"/><path d="m89.5 534.2c2.1-1.1 4.9-1.4 6.9 0.1 3.2 2.3 4.9 6 7.3 9 3.1 4.2 7.6 7.3 10.5 11.7 2.7 4.3-2.3 11.2-7.6 8.9-4-2.4-6.4-6.5-9.3-9.9-3.7-4.7-8.7-8.8-10.5-14.6-0.8-2.1 0.6-4.2 2.6-5.1z" class="b"/><path d="m839.4 534.2c4.8-2.9 11.8 2.8 9.6 7.8-2.4 5-7.2 8.4-10.2 12.9-2.8 3.6-5 8.2-9.6 10.1-4.5 0.2-9.7-4.8-7.4-9.1 2.4-4.4 6.9-7.3 9.7-11.5 2.5-3.5 4-7.8 7.9-10.2z" class="b"/><path d="m778.7 566c4.6-7.5 12.4-12.5 18.5-18.7 2.4 0.1 5.1 0.3 6.9 2.1 2.7 2.3 2.8 6.5 0.4 9-3.4 3.7-7.6 6.7-10.7 10.6-2.4 2.6-4.4 5.9-7.9 7.3-5.8 1.4-10.3-6-7.2-10.3z" class="b"/><path d="m134.6 549.3c2.5-1 5.5-0.7 7.5 1.1 4.4 3.7 8 8.2 12.1 12.2 2.6 3 5.9 6.2 5.7 10.4 0 2.7-3.4 3.6-5.8 3.6-4.7 0.2-7.5-4-10.4-6.9-4-4.8-9.6-8.6-12-14.5-1-2.4 0.3-5.1 2.9-5.8z" class="b"/><path d="m568.2 554.1c12-1.6 24.3 1.8 34 8.4 14.2 9.4 21.9 26.2 20.4 42.2-1 10.1-6.2 19.6-13.5 27-10.7 10.5-26.7 15.5-42 14.8-10.6-0.3-20.1-5.8-27.6-12.4-9.1-7.8-14.4-19-15.7-30.4-1.3-12.5 3.6-25.2 12.4-34.6 8.1-8.6 20-13.5 32-15z" class="d"/><path d="m364 558.3c15.9-3.2 34.1 1.7 44.4 13.9 0.5-1.6 0.9-3.2 1.4-4.8 4.5 0.5 8.8 1.8 13.1 3-2.3 9.2-5.5 18.2-7.9 27.4-4.5-1-8.9-2.1-13.2-3.6 0.2-5.5-2.9-10.6-7.2-14.3-6.6-6.2-16.5-8.4-25.6-7.3-9.2 1.4-16.8 7.8-21.3 15.2-4.4 7.8-6.3 17.1-4 25.7 1.4 5.8 4.7 11.4 9.9 15 7.5 5.1 17.3 7.3 26.4 5.4 5.9-1.7 10.8-5.4 15-9.5 5.1 0.9 10 2.4 15 3.5-4.6 8.8-12.8 16.3-22.9 19.2-12.3 3.7-26 1.7-37.2-4-12.4-6.2-20.8-18.3-23.2-31.1-2.1-13.4 1.8-27.4 10-38.5 6.4-8.4 16.8-13.1 27.3-15.3z" class="d"/><path d="m112.3 569c-1.6-5.4 7.4-8.3 10.8-4.5 2.8 2.8 4.4 6.4 7.3 9 3.5 3.6 8.2 6 11 10.2 1.7 4-1.4 8-5.3 9.4-6.2-2.6-9.8-8.1-14.6-12.4-3.5-3.6-7.8-7-9.3-11.8z" class="b"/><path d="m815.3 563c3.2-0.9 6 1.5 8.5 3 0 2.1 0.3 4.5-1.2 6.3-3 4.3-7.1 7.8-10.4 11.8-2.8 3.1-5.1 6.8-9.2 8.5-3.4 0.6-6.7-1.6-8.4-4.2-0.7-2.1 0-4.5 1.5-6.2 3.8-4.5 9.1-7.7 13.1-12.1 2.1-2.3 3.4-5.4 6.1-7.2z" class="b"/><path d="m568.6 568.9c13.8-2.2 28.3 5.7 33.8 17.6 4.7 9.3 4.7 20.8-0.9 29.8-7.9 13.7-28.3 19.9-43.1 12.3-17.3-8.1-22.6-30.8-13-45.9 4.9-7.7 14-12.3 23.2-13.8z" class="c"/><path d="m438.7 571.5c12.9-0.3 25.9-0.2 38.9-0.2 0 3.8 0 7.7 0.1 11.5-3.7 0-7.5 0-11.2 0-0.1 21.2 0.3 42.5 0.2 63.7 7.4 1.1 14.9 0.1 22.3 0.1 0.1-4.4-0.3-8.8 0-13.1 0.5-1.2 2-0.7 3-0.9 3.9-0.1 7.8 0 11.8-0.1 0.2 8.7 0.2 17.3 0.2 26-17.6 0.2-35.3 0-52.9 0.5-3.8 0-7.6 0-11.5-0.1 0-3.9 0-7.9-0.1-11.8 3.5 0 6.9 0 10.4-0.1-0.1-21.4-0.3-42.7-0.4-64.1-3.5 0-7 0-10.6 0 0-3.8 0-7.6-0.1-11.4z" class="d"/><path d="m158.7 576.4c1.9-2.3 5-2.3 7.8-2.4 4.2 7.7 14.3 9.8 19.9 16.3 2.9 3.4 1.6 9.2-2.7 11.1-4.4 1.1-7.9-2.4-10.8-4.9-4.2-4.2-9.2-7.6-13.3-11.8-2.3-2.1-2.4-5.7-0.8-8.2z" class="b"/><path d="m769.3 575c4.5-3 12.9 0.6 10.9 6.2-3.9 5.9-9.6 10.5-15.1 15.1-2.4 2.1-5.2 3.8-8.2 5.2-3.1-1.4-6.5-3.4-6.6-7-0.4-4 3.8-6.3 6.6-8.6 4.7-3.1 7.8-7.7 12.5-10.8z" class="b"/><path d="m777 599.9c4.2-3.4 7.4-8.3 13-9.7 2.6 1.1 6.2 2 6.8 5.1 0.6 1.8-0.7 3.4-1.8 4.7-5.5 6.3-11.7 12.2-18.6 17.2-1.6 1-3.3 2.3-5.4 1.9-4.1-0.8-6.8-5.4-5.3-9.1 3.1-3.9 7.5-6.7 11.3-10z" class="b"/><path d="m143.2 590.8c1.9-1 4.5-1 6.3 0.3 5 3.3 9 7.8 13.8 11.4 3 2.6 6.7 5 8.3 8.6 0.2 2.9-1.8 6-4.6 7.2-4.7 0.6-8.1-3.2-11.3-5.8-5-5-11.3-9-14.6-15.2-1.4-2.4-0.7-5.5 2.2-6.5z" class="b"/><path d="m734.1 602.8c3.8-2.7 7.9-6.8 13.1-6 3.9 1.3 4.6 5.4 4.9 8.8-6.4 4.3-11.3 10.3-18.1 14.1-2.9 1.6-6.2 2.5-9.4 3.4-1.8-2-4.7-4.2-3.9-7.2 3.4-5.1 8.4-9.2 13.3-13.1z" class="b"/><path d="m192 597.9c3.1-0.6 5.2 2.1 7.1 3.9 5.4 5.9 14.7 7.4 19.3 14.1-0.3 2.9-1.5 7.1-5.3 7.3-4.6-0.2-7.9-3.6-11.4-6-4.3-3.6-9.9-5.6-13.6-9.7-3.2-3.2-0.4-8.9 4-9.6z" class="b"/><path d="m756.4 616.2c1.3-1 2.8-2.4 4.6-1.6 3.4 1.5 5.1 4.9 6.7 7.9-2 3.9-6.6 5.3-9.7 8.3-4.9 4.2-9.4 9.4-15.9 11.4-3.8 1.2-6.6-2.3-8-5.1-1.5-2.5 0.9-4.8 2.6-6.5 6.1-5.4 13.4-9.3 19.8-14.3z" class="b"/><path d="m170.7 618.5c1.9-2.9 6.7-4.1 9.7-2 4.5 2.9 7.9 7.1 12.6 9.7 3.6 2.4 8.2 4.3 10.3 8.2 0.5 3.8-2.8 6.8-6.2 8.2-3.5-1.5-6.6-3.5-9.6-5.7-4.9-3.8-10.3-7.1-14.5-11.6-1.7-1.8-3.3-4.3-2.3-6.8z" class="b"/><path d="m710.9 620.2c1.8-0.8 3.8-1.9 5.9-1.2 2.5 0.9 3.8 3.2 4.9 5.3-2.9 6.7-10.9 8.9-16.2 13.4-3.4 2.5-7.3 6.2-12.1 4.8-3.7-1.4-4.6-5.6-3.9-8.9 6.6-5.1 13.9-9.5 21.4-13.3z" class="b"/><path d="m221.3 619.8c1.7-1.1 4-0.9 5.7-0.1 5.8 2.7 9.5 8.3 15.6 10.6 2.4 1.1 5.7 1.3 7.2 3.6 0.7 3.4 0.2 9.2-4.6 9.4-5.1-0.8-9-4.2-13.3-6.5-4.1-2.5-9-3.9-12.6-7-3.2-2.8-1.3-8 2.1-9.9z" class="b"/><path d="m655.6 649.5c8.6-3.7 16.6-8.6 25.4-12 5.5-2.6 10.4 5.8 6.5 9.6-3.7 3.7-8.9 5.7-13.6 8.1-4.9 2.1-10.6 5.2-16.1 3.1-3-2.1-2.2-5.8-2.2-8.8z" class="b"/><path d="m206.3 638.5c2.4-1.4 5.3-0.1 7.7 0.8 5.8 2.9 11 6.6 16.6 9.7 2.4 1.6 5.6 2.9 6.7 5.7 0.3 3.7-2.5 9-7.2 8.4-5.3-1-9.2-4.9-13.6-7.6-4.3-3-9.4-5.2-13.1-8.8-0.1-2.8 0.1-6.5 2.9-8.1z" class="b"/><path d="m250.7 646.8c-1-4 2-10.6 7.3-8.8 9.3 2.8 16.7 9.1 25.6 12.5 0.5 3.5-0.3 6.9-2.4 9.9-7.9 0.6-14.2-4.4-20.9-7.3-3.4-1.8-7.5-3.1-9.6-6.3z" class="b"/><path d="m700.4 652.8c10.3-4.5 18.3-13.3 29.9-15.2 2.1 2.1 5.3 4.8 3.8 8.1-2.8 5.1-8.7 7.6-13.5 10.9-5.1 2.9-10.3 7.2-16.6 6.5-4.2-1.7-3.4-6.7-3.6-10.2z" class="b"/><path d="m646.6 653c4.7-2 8.7 3.9 8.3 7.7-2.4 3.6-6.8 5.5-10.7 7.6-6.1 2.8-12.7 6-19.7 5-5-1-4.6-7.1-2.9-10.4 8.3-3.4 16.8-6.4 25-9.9z" class="b"/><path d="m284.2 662c0.3-3.4 1.6-7.9 6-8 9.9 1 18 7.2 27.4 9.9 2 3.4 0.4 7.4-1.2 10.6-11.7-1.2-22.6-6.2-32.2-12.5z" class="b"/><path d="m240.5 657.5c2.3-0.9 4.7 0.4 6.8 1.2 7.9 3.4 16 6.6 23.2 11.1 4.2 2.8 1.7 9.2-2.3 11.1-5.4-0.2-9.9-3.4-14.6-5.6-5.4-2.8-12-4.2-16.2-8.7 0.2-3.2 0.6-6.6 3.1-9z" class="b"/><path d="m667.7 669.7c8.8-4.5 16.9-10.2 26.5-13.3 4 1.3 6.9 4.9 6.6 9 0.2 2.5-2.2 4-4.3 5-4.8 2.5-10.2 3.9-14.9 6.5-3.8 2-7.9 4.7-12.5 3.7-3.1-2-4-5.7-4.2-8.9 0.6-1 1.9-1.4 2.9-2z" class="b"/><path d="m323.6 666.7c10.7 1.1 20.5 5.6 30.9 8.1 1.8 3.5 0.8 7.9-2.4 10.4-1.5 1.2-3.5 0.1-5.1-0.2-8.8-2.6-18.1-4.3-26.4-8.2-0.4-3.6 0.8-7.1 3-10.1z" class="b"/><path d="m586.7 674.5c8.9-5 19.4-6.5 29.5-8.4 1.4 2.8 3.6 6.2 1.5 9.2-2.2 3.1-6.1 4.5-9.8 5.6-6.7 1.9-13.6 2.7-20.3 4.5-2.3-3-5.4-8.6-0.9-11z" class="b"/><path d="m273.9 678.5c0.6-2.5 3.4-4.7 6.3-3.9 6.5 1.2 12.3 4.3 18.5 6.4 3.9 1.6 8.5 2.8 10.9 6.4 1.1 3.3-1 6.8-3.7 8.7-11.7-1.4-21.8-7.6-32.3-11.9 0.1-1.9 0-3.8 0.4-5.7z" class="b"/><path d="m657.2 674.9c5.7-1 9.4 6.1 5.7 10-4.2 3.5-10.1 3.9-15 6.2-5 2.1-9.9 5.7-15.7 5.2-3.6-2.1-6.1-7.5-2.6-10.6 5-4.3 11.8-5.7 18-7.9 3.2-1 6.3-2.5 9.7-2.8z" class="b"/><path d="m547.3 683.4c9.6-5.1 21.2-5.1 31.7-7.7 2.3 3 3.6 6.6 3.2 10.3-0.2 0.2-0.7 0.6-0.9 0.9-9.7 4.2-20.5 4.8-30.8 7-3-2.5-4.5-7-3.2-10.5z" class="b"/><path d="m358.5 687.3c-1.9-3.6-0.4-9.7 4.5-10.2 10-0.8 18.9 4.5 28.6 5.8 0.8 2.5 1.5 5.2 0.4 7.8-0.5 1.5-1.8 3.4-3.8 2.9-10.1-1.1-20.5-2.3-29.7-6.3z" class="b"/><path d="m510.4 686.7c10.7-1.1 21.4-3.1 32.2-3.2 2.6 3.6 2.8 8.2 0.8 12.1-10.3 1.1-20.6 2.9-31 3.1-3.7-3-2.9-8-1.9-12z" class="b"/><path d="m394.9 688.9c0.5-4.1 5.5-5.2 9.2-5.1 8.1 0.2 16.1 2.5 24.2 2.9 2.7 3.7 2.8 8.4 0.1 12.1-10.2-0.3-20.5-0.9-30.3-3.3-3.2-0.5-3.1-4.3-3.2-6.6z" class="b"/><path d="m311.4 698.3c-1.2-4.1 0.8-8 3.4-11.1 11 3.4 22.5 5.6 33 10.3 0.1 3.3-0.5 6.6-1.8 9.7-12.3 0.7-23.3-5.3-34.6-8.9z" class="b"/><path d="m433.7 698.3c-0.8-3.8-0.9-8.1 2.3-10.9 10.5 0.1 21.2-0.5 31.6 2 1.3 3.6 1.4 7.4-0.2 10.9-11.2 0.8-22.8 1.1-33.6-2z" class="b"/><path d="m471.6 690c10.5-3.3 21.9-2.1 32.8-2.7 1.8 3.5 2.7 7.3 2.1 11.1-8.2 2.4-16.9 1.9-25.3 2.1-2.7 0-5.5 0.3-8.2-0.2-1.9-3.2-1.6-6.9-1.3-10.4z" class="b"/><path d="m612.1 689.8c3.6-1.1 7.5-2.4 11.3-1.3 3.4 2.1 2.9 6.4 3.1 9.7-10.9 4.4-21.9 9.3-33.9 9.9-2.3-3.3-2.9-7.3-2.9-11.2 7.3-3 15.1-4.6 22.5-7.1z" class="b"/><path d="m551.8 704.6c9.5 0.1 17.9-5.1 27.3-5.7 2.7-0.1 5.8 0.8 7.2 3.2 1.5 2.1 1.3 4.8 1.4 7.2-11.4 3.7-23.4 7.5-35.6 6.7-2.4-3.4-2.6-8-0.3-11.4z" class="b"/><path d="m350.4 709.8c-0.6-4-0.1-8.1 2.6-11.5 11.3 2.1 23 3.6 33.7 7.7 0.9 3.4 0.5 8-2.5 10.2-11.6-0.3-22.8-3.2-33.8-6.4z" class="b"/><path d="m389.7 716.2c0.1-3.6 0.1-7.6 3-10.3 10.9 1.5 21.9 2.1 32.7 4 2.8 3.7 2.4 8.4-0.1 12.2-11.9-1.2-24.7-0.6-35.6-5.9z" class="b"/><path d="m510.9 711c11.1-3.6 22.9-3.4 34.4-5.1 2.3 3.2 3.4 7.2 2.1 11-2.7 1.7-6.3 1.8-9.4 2.6-8.5 1.5-17.5 3.4-26 0.9-2.4-2.5-1.4-6.4-1-9.5z" class="b"/><path d="m432.3 710.6c11.4 0.5 23.1-0.6 34.3 1.9 1.4 3.8 0.9 7.9-1.2 11.4-6.8 0.1-13.6 1.2-20.3 0.4-4.9-0.6-10.8-0.5-14.4-4.2-2.6-3 0.2-6.6 1.7-9.4z" class="b"/><path d="m473.5 711.9c10.8-1.7 21.7-0.8 32.6-1.2 1.5 3.8 2.5 8.2 0.2 12-11.3 0.9-22.6 1.5-33.9 1.1-2.8-2.7-2.4-6.9-1.7-10.3 0.1-1.3 1.8-1.3 2.9-1.6z" class="b"/><path d="m421.4 747.4c13.6 1 27.2 1.9 40.9 2.1l-29.6 0c-3.8-0.4-7.5-1.2-11.3-2.1z" class="f"/><path d="m473.8 749.5c10.9-0.4 21.8-0.4 32.6-1.8 0.1 0.1 0.3 0.4 0.4 0.6-1.1 0.4-2.2 0.8-3.3 1.2l-29.6 0z" class="f"/><path d="M655.9 215.9C651.4 150.9 593.6 99.4 522.8 99.4c-60.1 0-110.9 37.1-127.6 88.2-9.3-3.3-19.5-5.1-30-5.1-43.3 0-79 30.3-84.2 69.4-0.3 0-0.6 0-0.9 0-37.2 0-67.4 28.2-67.4 63 0 34.8 30.2 63 67.4 63 4.4 0 8.8-0.4 13-1.2 20.4 25.6 52.9 42.1 89.6 42.1 31.6 0 60-12.2 80.4-31.9 15.2 14.2 36.3 23.1 59.5 23.1 31.8 0 59.4-16.4 73.7-40.7 11.8 5.5 25.1 8.6 39.2 8.6 48.5 0 87.9-36.8 87.9-82.1 0-38.8-28.8-71.3-67.5-79.9z"/></g></svg>