<?xml version="1.0" encoding="UTF-8" standalone="no"?>
<!-- Created with Inkscape (//www.inkscape.org/) -->
<svg id="svg2" xmlns:rdf="//www.w3.org/1999/02/22-rdf-syntax-ns#" xmlns="//www.w3.org/2000/svg" height="177.34mm" width="177.42mm" version="1.1" xmlns:cc="//creativecommons.org/ns#" xmlns:dc="//purl.org/dc/elements/1.1/" viewBox="0 0 628.66153 628.35574">
 <metadata id="metadata7">
  <rdf:RDF>
   <cc:Work rdf:about="">
    <dc:format>image/svg+xml</dc:format>
    <dc:type rdf:resource="//purl.org/dc/dcmitype/StillImage"/>
    <dc:title/>
   </cc:Work>
  </rdf:RDF>
 </metadata>
 <g id="layer1" transform="translate(-31.656 -33.337)">
  <g id="g3712" transform="matrix(.69286 0 0 .74143 22.143 137.36)">
   <path id="path3402" fill="#96252a" d="m417.25-86.448c13.6-0.44856 27.2-0.90646 40.81-0.99056 5.63 0.0374 11.45-0.38314 16.84 1.4765 7.69 2.3456 14.6 8.2048 16.22 15.821 1.04 5.8592 0.34 12.429-3.75 17.223-2.44 2.9717-5.98 4.85-9.44 6.5975 5.04 1.6354 10.23 4.607 11.02 10.018 1.06 7.8217 0.56 15.784 0.96 23.661 3.12-0.0374 6.24-0.0467 9.37 0.0374-0.02 3.8314 0.02 7.6628 0.14 11.504-8.62 0.56069-17.27 0.57003-25.91 0.80366 0.05-9.2421-1-18.437-0.84-27.67 0.02-3.2614-0.1-7.4572-3.74-9.0832-7.28-3.3829-15.69-1.5232-23.48-1.8877 0.08 9.13 0.64 18.251 0.78 27.381 3.45-0.0187 6.91-0.0748 10.36-0.16821 0.13 4.009 0.25 8.0273 0.18 12.046-12.35 0.19624-24.73 0.14017-37.06 0.94383-0.1-3.9996-0.17-7.9899-0.27-11.98 3.32-0.10279 6.64-0.17755 9.96-0.25231-0.62-21.362-1.32-42.725-1.92-64.087-3.34 0.0654-6.67 0.14017-10.01 0.1869-0.09-3.8594-0.18-7.7189-0.22-11.578z"/>
   <path id="path3404" fill="#96252a" d="m547.14-80.757c15.65 3.6258 31.15 7.7563 46.77 11.476-0.9 3.7193-2.01 7.3918-2.82 11.139-3.35-0.43921-6.6-1.2802-9.81-2.2147 0.33 14.578 1.88 29.1 2.49 43.669 0.86 7.8871 0.78 15.812 1.63 23.699 2.2 0.54201 4.4 1.0747 6.62 1.598-0.73 3.9155-1.95 7.7189-2.99 11.56-11.02-2.6353-21.98-5.5041-33-8.1301 0.52-3.9529 1.76-7.7749 2.86-11.606 3.28 0.813 6.56 1.6073 9.86 2.383-0.24-6.0648-1.01-12.092-1.31-18.148-9.14-2.3736-18.31-4.5883-27.47-6.8685-3.63 5.0462-7.23 10.102-10.86 15.139 3.19 0.90646 6.42 1.6821 9.66 2.4203-0.95 3.766-1.99 7.5133-3.09 11.242-10.98-1.9718-21.65-5.2518-32.51-7.7469 1-3.8688 2.09-7.7282 3.37-11.532 2.41 0.48594 4.87 1.7942 7.34 1.5232 8.55-11.429 16.6-23.213 24.97-34.754 4.95-7.1208 10.27-14.017 14.97-21.288-3.26-0.70086-6.49-1.5139-9.69-2.4016 1-3.7193 2.09-7.4198 3.01-11.158z"/>
   <path id="path3406" fill="#96252a" d="m361.09-75.271c4.22-1.3176 8.42-2.7287 12.67-3.9809 3.5 9.6439 7.45 19.148 10.55 28.913-3.98 1.3644-7.96 2.7567-12.08 3.7006-2.52-3.6632-6.02-6.8311-10.5-8.2796-9.85-3.467-21.32-1.1961-29.61 4.6351-8.43 5.9901-12.82 16.241-11.78 26.026 1.14 12.475 9.78 24.951 22.9 28.876 9.66 2.8128 20.34 0.29904 28.72-4.607 7.35-4.2052 11.83-12.074 11.87-20.092-6.73 2.383-13.59 4.4014-20.33 6.7564-1.38-4.0744-4-8.046-4.02-12.363 14.13-4.4108 28.06-9.5131 42.35-13.494 1.43 3.9903 3.08 7.9151 4.17 11.999-3.07 0.96253-6.12 1.9437-9.18 2.925 3.12 9.0739 7.12 18.008 9.76 27.119-4.25 1.2148-8.4 2.6726-12.66 3.8314-1.01-2.654-2.01-5.3079-2.97-7.9712-2.59 3.0371-4.5 6.5508-7.46 9.3169-8.34 8.1301-20.56 12.12-32.44 12.298-15.44 0.65414-30.5-7.504-38.69-19.559-6.7-9.7841-10.47-21.764-8.24-33.371 2.17-11.429 8.3-22.587 18.36-29.642 11.33-7.9151 26.6-11.606 40.3-7.261-0.5-1.9437-1.24-3.8221-1.69-5.7751z"/>
   <path id="path3408" fill="#fff" d="m444.39-75.365c8.26-0.3738 16.93-1.4765 24.82 1.5139 2.95 1.0466 4.94 3.7753 5.27 6.6722 0.34 3.6071 0.42 7.5787-1.76 10.747-1.71 2.6913-5.15 3.6632-8.17 4.4575-6.45 1.4578-13.15 1.1494-19.72 1.1307-0.09-8.1768-0.24-16.344-0.44-24.521z"/>
   <path id="path3418" fill="#fff" d="m546.88-32.687c5.89-8.915 12.3-17.531 18.58-26.222 0.88 10.42 1.35 20.848 2.05 31.277-6.87-1.7195-13.72-3.523-20.63-5.0556z"/>
   <path id="path3424" fill="#96252a" d="m642.63-53.283c1.88 0.83169 3.7 1.7755 5.42 2.8782 8.12 5.2331 16.45 10.186 24.54 15.456-3.72 12.503-7.26 25.054-10.89 37.576-1.28 4.4949-2.79 8.9431-3.63 13.531 15.36-10.494 30.69-21.026 46.03-31.548 9.37 5.8499 18.71 11.747 28.13 17.531-2.11 3.3828-4.49 6.6162-6.9 9.8308-2.48-1.598-4.98-3.1492-7.51-4.6538-12.29 16.615-24.03 33.586-36.16 50.304-0.4 0.89711-1.66 1.7662-1.2 2.8128 2.07 1.7101 4.52 2.9623 6.82 4.3828-1.97 3.5324-4.5 6.7377-6.75 10.111-4.87-2.3175-9.15-5.5228-13.75-8.2422-5.14-3.3174-10.5-6.3452-15.52-9.8028 1.81-3.5698 4.36-6.8031 6.95-9.9149 3.13 1.3737 5.82 3.467 8.75 5.1584 11.34-16.12 23.05-32.025 34.29-48.21-18.5 12.065-36.43 24.895-54.94 36.941-2.71-1.8129-5.47-3.5417-8.24-5.2425 2.72-13.214 6.57-26.203 9.72-39.333 1.65-7.261 4.08-14.391 5.16-21.764-11.5 15.784-22.92 31.623-34.01 47.65 2.77 1.7662 5.55 3.523 8.38 5.2144-2.15 3.4763-4.27 7.0367-7.17 10.018-9.78-5.7845-19.45-11.821-28.92-18.054 1.78-3.5698 4.29-6.8124 6.88-9.9056 2.75 1.2896 5.22 3.0277 7.84 4.5323 12.46-17.755 25.34-35.268 37.74-53.06-2.59-1.5419-5.14-3.1305-7.69-4.7192 2.21-3.1586 4.45-6.2985 6.63-9.4757z"/>
   <path id="path3438" fill="#96252a" d="m245.59-18.781c13.67-1.2242 28.03 2.8595 38.07 11.747 8.53 7.3357 14.83 17.251 16.21 28.119 1.91 14.578-3.77 30.1-15.62 39.931-9.31 7.8217-21.3 14.148-34.2 13.475-14.18-0.82235-28.17-6.9339-37.17-17.335-8.31-8.9524-12.7-20.97-11.62-32.81 0.72-21.998 21.43-40.66 44.33-43.127z"/>
   <path id="path3444" fill="#fff" d="m246.1-3.7828c8.95-0.78497 18.38 1.7662 25.14 7.4012 5.96 4.9061 10.43 11.56 11.94 18.895 1.43 7.5694 0.18 15.737-4.42 22.213-3.67 5.1303-8.83 9.3916-14.84 11.971-11.72 5.0276-26.71 2.2802-35.42-6.6349-9.23-9.0926-14.06-23.129-8.74-35.109 4.64-9.7841 14.83-17.466 26.34-18.737z"/>
   <path id="path3460" fill="#96252a" d="m758.28 46.689c3.3-2.3829 6.62-4.7472 9.92-7.1488 9.1 10.999 18.05 22.11 27.2 33.081 0.71 0.92514 1.47 1.9064 1.61 3.0838-2.85 2.5885-6.2 4.6538-9.5 6.7096-2.01-2.3082-3.42-5.2518-6.22-6.8218-11.07 14.756-21.73 29.792-32.65 44.65-2.39 3.5791-5.43 6.7844-7.4 10.588 1.12 1.8316 2.66 3.4296 3.66 5.3453-3.04 2.5138-6.22 4.9528-9.75 6.8405-7.3-8.1861-13.91-16.914-20.93-25.315 3.36-2.3736 6.73-4.7472 10.03-7.1956 2.23 2.2428 3.72 5.5509 6.56 7.0554 3.35-4.3734 6.52-8.8776 9.59-13.419 1.4-1.9344-1.19-3.6445-2.16-5.2051-4.77-5.663-9.4-11.438-14.1-17.139-5.99 2.14-12.42 3.3361-18.17 5.9714 1.64 2.6259 3.77 4.9341 5.69 7.3825-3.39 2.4016-6.67 4.9528-10.3 7.0367-6.6-8.3356-13.45-16.512-20.17-24.764 3.32-2.439 6.69-4.8126 10.04-7.2142 2.09 1.7568 3.41 6.5134 6.93 4.9434 22.1-6.9526 44.21-13.905 66.3-20.876-2-2.5698-4.05-5.1117-6.18-7.5881z"/>
   <path id="path3466" fill="#96252a" d="m143.26 71.285c4.53-6.1583 11.57-11.064 19.66-11.933 12.56-1.8503 26.11 8.8776 24.68 21.045-0.05 1.4952-0.17 2.9997-0.28 4.5042 3.94-3.4389 9.74-5.392 14.86-2.9717 7.58 3.6632 14.1 8.9804 21.58 12.831 1.56-2.2895 3.16-4.5603 4.77-6.8218 3.51 2.1213 7.22 4.0183 10.4 6.5695-4.35 6.8591-9.5 13.251-14.05 19.998-9.27-5.3827-18.12-11.363-27.31-16.868-2.33-1.4952-5.5-2.2521-8-0.62611-6.83 3.7566-10.66 10.653-14.65 16.774 8.2 4.878 16.19 10.055 24.28 15.092 1.95-2.6726 3.88-5.3453 5.81-8.0273 3.34 2.1867 6.98 3.9996 10.09 6.4947-0.37 1.0747-0.93 2.0839-1.59 3.0371-6.23 8.5973-12.43 17.213-18.53 25.885-3.65-2.0652-7.15-4.3173-10.66-6.5695 1.85-2.5605 3.7-5.1397 5.53-7.7189-16.29-10.214-32.61-20.4-48.91-30.605-2.66-1.7382-5.36-3.4389-8.25-4.8313-1.85 2.411-3.14 5.3453-5.6 7.261-3.53-1.8036-6.7-4.1585-10.08-6.1957 8.7-12.139 17.19-24.418 26.25-36.324z"/>
   <path id="path3470" fill="#fff" d="m736.8 77.06c10.5-3.0745 20.81-6.7283 31.37-9.6439-6.01 8.616-12.38 17.008-18.47 25.577-4.7-4.9902-9.21-10.242-12.9-15.933z"/>
   <path id="path3474" fill="#fff" d="m157.71 75.471c3.27-2.2615 7.85-1.4952 11.01 0.5607 3.59 2.2521 7.62 5.5602 7.14 10.036-0.8 7.9992-6.96 14.139-11.28 20.708-7.77-4.0183-14.99-8.9524-22.27-13.69 4.8-6.0929 8.51-13.288 15.4-17.615z"/>
   <path id="path3488" fill="#96252a" d="m812.28 119.37c3.87-1.5139 7.8-2.9156 11.78-4.1865 4.41 11.242 9.15 22.362 13.65 33.576 2.17 6.0181 5.19 12.036 4.86 18.54-0.16 7.8684-4.61 16.269-12.69 19.4-4.74 1.9437-10.19 3.2333-15.3 1.8036-4.38-1.112-8.05-3.766-11.22-6.7003 0.66 5.4387-1.56 11.279-7.14 13.69-7.43 3.0558-15.14 5.5228-22.72 8.2515 1.04 2.6353 2.11 5.2705 3.23 7.8871-3.92 1.5606-7.9 2.9997-11.94 4.2426-2.77-7.6348-6.68-14.914-8.8-22.736 9.91-3.4202 19.76-7.018 29.63-10.532 3.2-0.96252 5.96-3.6071 5.83-6.9152 0.17-6.962-3.6-13.232-5.88-19.671-9.39 2.654-18.34 6.476-27.58 9.5038 1.09 3.0932 2.31 6.1583 3.52 9.2234-4.02 1.0466-7.81 3.5324-12 3.551-4.53-10.55-8.65-21.26-13.13-31.829 3.94-1.4765 7.91-2.8969 11.9-4.2519 1.15 2.7754 2.27 5.5602 3.38 8.3543 4.18-0.87842 8.11-2.5044 12.1-3.9436 17.36-6.1489 34.67-12.429 52.05-18.559-1.12-2.925-2.28-5.8312-3.53-8.7001z"/>
   <path id="path3494" fill="#96252a" d="m107.86 143.77c5.66-4.1865 13.43-4.8594 20.24-3.1586 6.79 1.626 13.75 4.308 18.35 9.457 4.59 5.3359 5.65 12.494 5.34 19.138-0.02 7.2797-3.73 13.868-5.68 20.774 6.87 2.0278 13.62 4.4108 20.55 6.2517 1.22-3.3922 2.42-6.7844 3.47-10.223 4.19 0.81301 8.21 2.2147 12.23 3.5791-3.99 11.522-8.28 22.96-12.25 34.492-4.01-1.1775-7.99-2.4297-11.99-3.5978 0.93-3.1118 2.02-6.177 2.97-9.2701-21.7-6.6068-43.23-13.681-64.98-20.138-0.96 2.9904-2.02 5.962-3.17 8.9057-3.93-1.1401-7.82-2.4016-11.73-3.5884 3.3-9.9243 7.02-19.708 10.47-29.586 3-8.8496 8.35-17.213 16.18-23.035z"/>
   <path id="path3496" fill="#fff" d="m797.13 151.62c8.29-2.8969 16.44-6.1676 24.86-8.7094 2.67 7.3544 7.03 14.559 6.46 22.568-0.09 3.8968-3.92 6.4947-7.54 7.6348-4.12 1.4578-9.55 2.2054-12.9-1.112-5.86-5.5415-7.91-13.345-10.88-20.381z"/>
   <path id="path3502" fill="#fff" d="m108.5 161.22c3.12-3.3828 7.62-6.3265 12.65-5.691 6.19 0.57004 13.24 3.1866 15.54 9.0646 2.75 7.0554 0.44 14.709-2.87 21.232-10.91-2.7287-21.49-6.6068-32.26-9.8215 1.96-5.0462 3.11-10.588 6.94-14.784z"/>
   <path id="path3572" fill="#96252a" d="m178.92 417.91c3.15-2.4016 6.75-4.2052 10.11-6.3265 13.26 18.877 26.3 37.894 39.6 56.752-6.81 4.2613-13.74 8.3637-20.58 12.588-2.57-3.9155-5.67-7.532-7.88-11.625 3-2.3923 6.54-4.0744 9.76-6.177-5.59-7.9525-10.79-16.195-16.82-23.839-6.95 3.5324-13.23 8.0927-20.05 11.84 4.24 7.1021 9.45 13.644 13.98 20.577-4.09 2.5698-8.22 5.0556-12.33 7.588-4.85-6.747-9.41-13.672-14.33-20.372-8.05 5.0743-16.45 9.6813-24.31 14.989 5.1 8.2609 10.95 16.139 16.62 24.091 4.27-2.5605 8.31-5.5135 12.95-7.4946 2.38 3.8501 5.5 7.2984 7.46 11.373-6.32 4.5603-13.39 8.1581-19.93 12.438-1.14 0.57004-3.01 2.2241-4.01 0.65414-12.89-18.522-25.72-37.081-38.7-55.546 3.47-2.2615 7.03-4.4108 10.66-6.448 1.82 2.5792 3.67 5.1397 5.58 7.6815 19.01-11.784 38.34-23.119 57.26-35.025-1.77-2.5231-3.79-4.9248-5.04-7.7189z"/>
   <path id="path3586" fill="#96252a" d="m731.29 446.08c21.2-9.0926 49.34-0.028 59.47 19.755 6.02 9.7093 6.02 21.587 3.18 32.212-3.06 11.008-11.54 19.559-18.53 28.521-4.12 5.1117-8.28 10.205-12.37 15.335-3.34-2.3362-6.66-4.6911-10.03-6.9713 1.78-2.6726 3.82-5.1771 5.83-7.7002-18.31-12.746-36.35-25.839-54.73-38.492-1.94 2.4857-3.93 4.9434-5.92 7.3918-3.32-2.3736-6.68-4.6911-9.96-7.0928 6.07-7.4572 12.08-14.942 18.14-22.409 6.58-8.3917 14.48-16.41 24.92-20.549z"/>
   <path id="path3588" fill="#fff" d="m736.98 457.39c17.75-4.3454 36.76 6.5227 43.13 22.11 2.69 5.6817 3.18 12.298 0.64 18.11-2.56 6.4199-7.56 11.541-11.83 16.98-18.24-12.774-36.41-25.642-54.57-38.529 6.1-7.4572 12.35-16.101 22.63-18.671z"/>
   <path id="path3594" fill="#96252a" d="m225.47 483.97c2.72-2.9997 5.4-6.0275 8.27-8.887 7.54 6.2611 15.2 12.401 22.88 18.512-4.91 19.68-10.44 39.23-15.32 58.92 10.18-10.392 19.91-21.176 29.68-31.903-2.29-1.8316-4.95-3.3642-6.71-5.6724 1.62-3.4389 5.34-5.8312 7.74-8.8963 8.47 7.1862 17.52 13.821 25.79 21.185-1.6 3.4576-5.28 5.9153-7.65 9.0178-2.44-2.0092-4.88-4.0183-7.31-6.0181-17.72 19.101-35.42 38.211-53.09 57.359-3.58-2.5418-6.88-5.4107-10.29-8.1488 6.01-24.577 12.06-49.145 18.09-73.713-13.01 13.737-25.99 27.521-38.48 41.678 2.62 1.9811 5.17 4.0557 7.75 6.0929-2.57 3.0838-5.4 5.9714-8.05 8.9991-9.08-6.8031-17.68-14.167-26.53-21.232 2.79-2.7194 5.22-5.7471 8.06-8.4291 2.71 0.813 4.56 3.1492 6.82 4.7005 15.13-15.952 29.96-32.165 44.82-48.341-2.15-1.7475-4.29-3.5043-6.47-5.2238z"/>
   <path id="path3600" fill="#96252a" d="m652.92 513.46c9.79-6.5227 19.6-13.027 29.32-19.634 2.48 3.1212 4.9 6.2891 7.37 9.429-2.49 1.7382-5.01 3.4296-7.57 5.0836 9.33 12.438 18.9 24.727 28.34 37.099 4.68 6.0275 8.79 13.111 8.3 20.802-0.73 7.775-4.5 15.4-10.77 20.634-9.83 8.1768-24.53 12.616-37.14 7.7189-5.32-2.1306-9.56-6.0368-12.91-10.363-10.06-13.13-20.08-26.287-30.19-39.379-2.36 1.4485-4.55 3.1305-7 4.4388-1.24 0.29903-1.77-1.084-2.44-1.7288-1.69-2.4016-3.91-4.5416-5.02-7.2423 9.37-6.9059 19.41-13.036 29-19.68 2.52 3.1399 5.29 6.1676 7.02 9.7934-2.63 1.6073-5.17 3.3268-7.66 5.121 7.74 10.868 16.22 21.269 24.23 31.969 4.02 5.3733 8.21 11.092 14.69 14.064 5.22 2.0185 10.58-1.0279 14.79-3.738 3.9-2.682 8.45-6.5788 7.24-11.606-1.82-7.6161-7.53-13.587-12.14-19.83-7.41-9.5598-14.58-19.279-22.15-28.726-2.74 1.7662-5.46 3.5698-8.18 5.364-2.44-3.1679-4.94-6.2798-7.13-9.5879z"/>
   <path id="path3618" fill="#96252a" d="m568.16 554.14c11.96-1.6073 24.31 1.7568 34.01 8.3543 14.19 9.3729 21.91 26.175 20.42 42.239-0.99 10.102-6.22 19.559-13.49 26.969-10.68 10.513-26.71 15.503-42.02 14.849-10.6-0.25231-20.14-5.7564-27.65-12.382-9.09-7.8404-14.37-19.008-15.7-30.399-1.34-12.503 3.58-25.25 12.4-34.623 8.15-8.5693 20.02-13.457 32.03-15.008z"/>
   <path id="path3620" fill="#96252a" d="m364.03 558.27c15.94-3.2333 34.13 1.6914 44.39 13.868 0.47-1.6167 0.93-3.224 1.41-4.8313 4.49 0.47659 8.79 1.8316 13.12 2.9904-2.27 9.2141-5.48 18.195-7.93 27.371-4.46-1.0279-8.94-2.0559-13.24-3.5791 0.19-5.5322-2.91-10.634-7.17-14.279-6.57-6.177-16.49-8.4478-25.56-7.3264-9.22 1.4485-16.79 7.775-21.31 15.176-4.44 7.7936-6.33 17.101-3.97 25.745 1.43 5.8312 4.7 11.401 9.93 14.999 7.49 5.0556 17.28 7.2516 26.36 5.4387 5.88-1.7101 10.84-5.3733 15.04-9.4757 5.06 0.90645 9.98 2.4016 14.98 3.5417-4.64 8.7936-12.76 16.326-22.93 19.232-12.3 3.738-26 1.6727-37.23-3.9996-12.37-6.2237-20.8-18.26-23.19-31.072-2.07-13.401 1.76-27.418 10.02-38.482 6.36-8.3917 16.77-13.139 27.28-15.316z"/>
   <path id="path3626" fill="#fff" d="m568.56 568.86c13.82-2.1774 28.27 5.7097 33.84 17.578 4.68 9.3262 4.72 20.839-0.88 29.838-7.95 13.709-28.33 19.858-43.13 12.307-17.35-8.0553-22.62-30.838-13.03-45.93 4.89-7.6908 13.95-12.307 23.2-13.793z"/>
   <path id="path3628" fill="#96252a" d="m438.73 571.5c12.94-0.2897 25.9-0.16821 38.85-0.24297 0.01 3.8314 0.04 7.6628 0.07 11.494-3.74 0.0187-7.47 0.0374-11.2 0.028-0.14 21.232 0.33 42.463 0.19 63.695 7.39 1.0653 14.87 0.0841 22.3 0.0654 0.07-4.3828-0.29-8.7655 0.03-13.13 0.47-1.2055 1.97-0.71956 3-0.86908 3.92-0.0561 7.84 0 11.76-0.0654 0.15 8.6627 0.2 17.335 0.18 25.997-17.64 0.1682-35.28 0-52.9 0.542-3.82 0.0374-7.65 0-11.47-0.11214 0-3.9342-0.02-7.859-0.06-11.784 3.46-0.028 6.92-0.0467 10.38-0.0748-0.08-21.372-0.28-42.744-0.45-64.115-3.52 0.028-7.05 0.0467-10.56 0.009-0.02-3.8127-0.05-7.6348-0.12-11.438z"/>
   <path id="path4026" d="m669.68 226c-4.7175-68.275-65.462-122.29-139.72-122.29-63.099 0-116.44 39.005-133.94 92.619-9.8063-3.4696-20.43-5.3839-31.537-5.3839-45.446 0-82.918 31.802-88.39 72.886-0.32781-0.007-0.65135-0.0228-0.98019-0.0228-39.105 0-70.807 29.624-70.807 66.168s31.701 66.167 70.807 66.167c4.6528 0 9.1962-0.43226 13.599-1.2322 21.377 26.834 55.581 44.217 94.131 44.217 33.129 0 63.044-12.84 84.371-33.479 15.988 14.96 38.085 24.216 62.496 24.216 33.342 0 62.358-17.269 77.392-42.753 12.386 5.7735 26.355 9.027 41.136 9.027 50.969 0 92.29-38.611 92.29-86.242 0-40.732-30.219-74.863-70.847-83.897z" stroke="#2a2e3c" stroke-width="1.05" fill="#2a2e3c"/>
  </g>
 </g>
 <g id="layer2" transform="translate(-31.656 -33.117)">
  <path id="path3529" d="m653.24 346.06c7.54 199.29-210.24 359.28-398.13 293.44-192.43-51.61-281.56-306.77-162.82-466.88 106.33-168.62 376.37-178.17 494.37-17.5 42.892 53.744 66.755 122.18 66.587 190.94z" fill-rule="evenodd" fill-opacity=".17290" stroke="#2a2d3e" stroke-width="13.768"/>
 </g>
</svg>
