<svg style="position: absolute; width: 0; height: 0; overflow: hidden;" version="1.1" xmlns="http://www.w3.org/2000/svg" xmlns:xlink="http://www.w3.org/1999/xlink">
<defs>
<symbol id="icon-cloud" viewBox="0 0 16 16">
<title>cloud</title>
<path class="path1" d="M16 10.274c0-1.283-0.886-2.358-2.078-2.648-0.051-2.011-1.695-3.626-3.717-3.626-1.184 0-2.239 0.555-2.92 1.418-0.382-0.494-0.98-0.812-1.652-0.812-1.153 0-2.088 0.936-2.088 2.089 0 0.101 0.007 0.199 0.021 0.296-0.175-0.032-0.356-0.049-0.54-0.049-1.672-0-3.027 1.356-3.027 3.029s1.355 3.029 3.027 3.029l10.254-0c1.502-0.003 2.719-1.222 2.719-2.726z"></path>
</symbol>
<symbol id="icon-library" viewBox="0 0 17 16">
<title>library</title>
<path class="path1" d="M16 15v-1h-1v-6h1v-1h-3v1h1v6h-3v-6h1v-1h-3v1h1v6h-3v-6h1v-1h-3v1h1v6h-3v-6h1v-1h-3v1h1v6h-1v1h-1v1h17v-1h-1z"></path>
<path class="path2" d="M8 0h1l8 5v1h-17v-1l8-5z"></path>
</symbol>
<symbol id="icon-pencil" viewBox="0 0 16 16">
<title>pencil</title>
<path class="path1" d="M13.5 0c1.381 0 2.5 1.119 2.5 2.5 0 0.563-0.186 1.082-0.5 1.5l-1 1-3.5-3.5 1-1c0.418-0.314 0.937-0.5 1.5-0.5zM1 11.5l-1 4.5 4.5-1 9.25-9.25-3.5-3.5-9.25 9.25zM11.181 5.681l-7 7-0.862-0.862 7-7 0.862 0.862z"></path>
</symbol>
<symbol id="icon-linkedin" viewBox="0 0 16 16">
<title>linkedin</title>
<path class="path1" d="M6 6h2.767v1.418h0.040c0.385-0.691 1.327-1.418 2.732-1.418 2.921 0 3.461 1.818 3.461 4.183v4.817h-2.885v-4.27c0-1.018-0.021-2.329-1.5-2.329-1.502 0-1.732 1.109-1.732 2.255v4.344h-2.883v-9z"></path>
<path class="path2" d="M1 6h3v9h-3v-9z"></path>
<path class="path3" d="M4 3.5c0 0.828-0.672 1.5-1.5 1.5s-1.5-0.672-1.5-1.5c0-0.828 0.672-1.5 1.5-1.5s1.5 0.672 1.5 1.5z"></path>
</symbol>
<symbol id="icon-github" viewBox="0 0 16 16">
<title>github</title>
<path class="path1" d="M8 0.198c-4.418 0-8 3.582-8 8 0 3.535 2.292 6.533 5.471 7.591 0.4 0.074 0.547-0.174 0.547-0.385 0-0.191-0.008-0.821-0.011-1.489-2.226 0.484-2.695-0.944-2.695-0.944-0.364-0.925-0.888-1.171-0.888-1.171-0.726-0.497 0.055-0.486 0.055-0.486 0.803 0.056 1.226 0.824 1.226 0.824 0.714 1.223 1.872 0.869 2.328 0.665 0.072-0.517 0.279-0.87 0.508-1.070-1.777-0.202-3.645-0.888-3.645-3.954 0-0.873 0.313-1.587 0.824-2.147-0.083-0.202-0.357-1.015 0.077-2.117 0 0 0.672-0.215 2.201 0.82 0.638-0.177 1.322-0.266 2.002-0.269 0.68 0.003 1.365 0.092 2.004 0.269 1.527-1.035 2.198-0.82 2.198-0.82 0.435 1.102 0.162 1.916 0.079 2.117 0.513 0.56 0.823 1.274 0.823 2.147 0 3.073-1.872 3.749-3.653 3.947 0.287 0.248 0.543 0.735 0.543 1.481 0 1.070-0.009 1.932-0.009 2.195 0 0.213 0.144 0.462 0.55 0.384 3.177-1.059 5.466-4.057 5.466-7.59 0-4.418-3.582-8-8-8z"></path>
</symbol>
<symbol id="icon-youtube" viewBox="0 0 16 16">
<title>youtube</title>
<path class="path1" d="M15.841 4.8c0 0-0.156-1.103-0.637-1.587-0.609-0.637-1.291-0.641-1.603-0.678-2.237-0.163-5.597-0.163-5.597-0.163h-0.006c0 0-3.359 0-5.597 0.163-0.313 0.038-0.994 0.041-1.603 0.678-0.481 0.484-0.634 1.587-0.634 1.587s-0.159 1.294-0.159 2.591v1.213c0 1.294 0.159 2.591 0.159 2.591s0.156 1.103 0.634 1.588c0.609 0.637 1.409 0.616 1.766 0.684 1.281 0.122 5.441 0.159 5.441 0.159s3.363-0.006 5.6-0.166c0.313-0.037 0.994-0.041 1.603-0.678 0.481-0.484 0.637-1.588 0.637-1.588s0.159-1.294 0.159-2.591v-1.213c-0.003-1.294-0.162-2.591-0.162-2.591zM6.347 10.075v-4.497l4.322 2.256-4.322 2.241z"></path>
</symbol>
<symbol id="icon-feed" viewBox="0 0 16 16">
<title>feed</title>
<path class="path1" d="M2.13 11.733c-1.175 0-2.13 0.958-2.13 2.126 0 1.174 0.955 2.122 2.13 2.122 1.179 0 2.133-0.948 2.133-2.122-0-1.168-0.954-2.126-2.133-2.126zM0.002 5.436v3.067c1.997 0 3.874 0.781 5.288 2.196 1.412 1.411 2.192 3.297 2.192 5.302h3.080c-0-5.825-4.739-10.564-10.56-10.564zM0.006 0v3.068c7.122 0 12.918 5.802 12.918 12.932h3.076c0-8.82-7.176-16-15.994-16z"></path>
</symbol>
<symbol id="icon-twitter" viewBox="0 0 16 16">
<title>twitter</title>
<path class="path1" d="M16 3.538c-0.588 0.263-1.222 0.438-1.884 0.516 0.678-0.406 1.197-1.050 1.444-1.816-0.634 0.375-1.338 0.65-2.084 0.797-0.6-0.638-1.453-1.034-2.397-1.034-1.813 0-3.281 1.469-3.281 3.281 0 0.256 0.028 0.506 0.084 0.747-2.728-0.138-5.147-1.444-6.766-3.431-0.281 0.484-0.444 1.050-0.444 1.65 0 1.138 0.578 2.144 1.459 2.731-0.538-0.016-1.044-0.166-1.488-0.409 0 0.013 0 0.028 0 0.041 0 1.591 1.131 2.919 2.634 3.219-0.275 0.075-0.566 0.116-0.866 0.116-0.212 0-0.416-0.022-0.619-0.059 0.419 1.303 1.631 2.253 3.066 2.281-1.125 0.881-2.538 1.406-4.078 1.406-0.266 0-0.525-0.016-0.784-0.047 1.456 0.934 3.181 1.475 5.034 1.475 6.037 0 9.341-5.003 9.341-9.341 0-0.144-0.003-0.284-0.009-0.425 0.641-0.459 1.197-1.038 1.637-1.697z"></path>
</symbol>
</defs>
</svg>
